IBM Plex Sans Thai-Thin.ufo
<glyph name="greater" format="1">
  <advance width="600"/>
  <unicode hex="003E"/>
  <outline>
    <contour>
      <point x="85" y="38" type="line" name="hr00"/>
      <point x="515" y="296" type="line"/>
      <point x="515" y="314" type="line"/>
      <point x="85" y="572" type="line"/>
      <point x="85" y="549" type="line"/>
      <point x="492" y="306" type="line"/>
      <point x="492" y="304" type="line"/>
      <point x="85" y="61" type="line"/>
    </contour>
  </outline>
</glyph>
<glyph name="sterling" format="1">
  <advance width="579"/>
  <unicode hex="00A3"/>
  <outline>
    <contour>
      <point x="513" y="0" type="line" name="hr00"/>
      <point x="513" y="20" type="line"/>
      <point x="107" y="20" type="line"/>
      <point x="107" y="22" type="line"/>
      <point x="168" y="69"/>
      <point x="201" y="141"/>
      <point x="201" y="221" type="curve" smooth="yes"/>
      <point x="201" y="254"/>
      <point x="195" y="283"/>
      <point x="187" y="311" type="curve"/>
      <point x="399" y="311" type="line"/>
      <point x="399" y="331" type="line"/>
      <point x="181" y="331" type="line"/>
      <point x="161" y="389"/>
      <point x="134" y="442"/>
      <point x="134" y="510" type="curve" smooth="yes"/>
      <point x="134" y="623"/>
      <point x="210" y="690"/>
      <point x="320" y="690" type="curve" smooth="yes"/>
      <point x="396" y="690"/>
      <point x="456" y="657"/>
      <point x="500" y="582" type="curve"/>
      <point x="519" y="592" type="line"/>
      <point x="473" y="671"/>
      <point x="404" y="710"/>
      <point x="319" y="710" type="curve" smooth="yes"/>
      <point x="200" y="710"/>
      <point x="112" y="635"/>
      <point x="112" y="510" type="curve" smooth="yes"/>
      <point x="112" y="441"/>
      <point x="139" y="388"/>
      <point x="158" y="331" type="curve"/>
      <point x="70" y="331" type="line"/>
      <point x="70" y="311" type="line"/>
      <point x="165" y="311" type="line"/>
      <point x="173" y="283"/>
      <point x="179" y="253"/>
      <point x="179" y="220" type="curve" smooth="yes"/>
      <point x="179" y="134"/>
      <point x="139" y="67"/>
      <point x="83" y="25" type="curve"/>
      <point x="83" y="0" type="line"/>
    </contour>
  </outline>
</glyph>
<glyph name="plusminus" format="1">
  <advance width="600"/>
  <unicode hex="00B1"/>
  <outline>
    <contour>
      <point x="311" y="115" type="line" name="hr00"/>
      <point x="311" y="349" type="line"/>
      <point x="539" y="349" type="line"/>
      <point x="539" y="368" type="line"/>
      <point x="311" y="368" type="line"/>
      <point x="311" y="602" type="line"/>
      <point x="290" y="602" type="line"/>
      <point x="290" y="368" type="line"/>
      <point x="62" y="368" type="line"/>
      <point x="62" y="349" type="line"/>
      <point x="290" y="349" type="line"/>
      <point x="290" y="115" type="line"/>
    </contour>
    <contour>
      <point x="538" y="0" type="line"/>
      <point x="538" y="19" type="line"/>
      <point x="62" y="19" type="line"/>
      <point x="62" y="0" type="line"/>
    </contour>
  </outline>
</glyph>
<glyph name="ordmasculine" format="1">
  <advance width="366"/>
  <unicode hex="00BA"/>
  <outline>
    <contour>
      <point x="183" y="360" type="curve" smooth="yes" name="hr00"/>
      <point x="269" y="360"/>
      <point x="320" y="426"/>
      <point x="320" y="532" type="curve" smooth="yes"/>
      <point x="320" y="638"/>
      <point x="269" y="704"/>
      <point x="183" y="704" type="curve" smooth="yes"/>
      <point x="97" y="704"/>
      <point x="46" y="638"/>
      <point x="46" y="532" type="curve" smooth="yes"/>
      <point x="46" y="426"/>
      <point x="97" y="360"/>
    </contour>
    <contour>
      <point x="183" y="377" type="curve" smooth="yes"/>
      <point x="107" y="377"/>
      <point x="67" y="440"/>
      <point x="67" y="516" type="curve" smooth="yes"/>
      <point x="67" y="548" type="line" smooth="yes"/>
      <point x="67" y="624"/>
      <point x="107" y="687"/>
      <point x="183" y="687" type="curve" smooth="yes"/>
      <point x="259" y="687"/>
      <point x="299" y="624"/>
      <point x="299" y="548" type="curve" smooth="yes"/>
      <point x="299" y="516" type="line" smooth="yes"/>
      <point x="299" y="440"/>
      <point x="259" y="377"/>
    </contour>
  </outline>
</glyph>
<glyph name="tildecomb" format="1">
  <advance width="0"/>
  <unicode hex="0303"/>
  <outline>
    <contour>
      <point x="71" y="646" type="curve" smooth="yes" name="hr00"/>
      <point x="99" y="646"/>
      <point x="125" y="658"/>
      <point x="149" y="685" type="curve"/>
      <point x="137" y="697" type="line"/>
      <point x="116" y="675"/>
      <point x="96" y="664"/>
      <point x="72" y="664" type="curve" smooth="yes"/>
      <point x="53" y="664"/>
      <point x="35" y="671"/>
      <point x="6" y="690" type="curve" smooth="yes"/>
      <point x="-28" y="712"/>
      <point x="-48" y="720"/>
      <point x="-71" y="720" type="curve" smooth="yes"/>
      <point x="-99" y="720"/>
      <point x="-125" y="708"/>
      <point x="-149" y="681" type="curve"/>
      <point x="-137" y="669" type="line"/>
      <point x="-116" y="691"/>
      <point x="-96" y="702"/>
      <point x="-72" y="702" type="curve" smooth="yes"/>
      <point x="-53" y="702"/>
      <point x="-35" y="695"/>
      <point x="-6" y="676" type="curve" smooth="yes"/>
      <point x="28" y="654"/>
      <point x="48" y="646"/>
    </contour>
    <contour>
      <point x="0.0" y="558.0" type="move" name="_top"/>
    </contour>
  </outline>
</glyph>
<glyph name="graphemeJoinerComb" format="1">
  <advance width="0"/>
  <unicode hex="034F"/>
  <outline>
    <contour>
      <point x="0.0" y="0.0" type="move" name="_bottom"/>
    </contour>
    <contour>
      <point x="0.0" y="0.0" type="move" name="_bottomright"/>
    </contour>
    <contour>
      <point x="0.0" y="600.0" type="move" name="_top"/>
    </contour>
    <contour>
      <point x="0.0" y="600.0" type="move" name="_topright"/>
    </contour>
  </outline>
</glyph>
<glyph name="koKai-thai" format="1">
  <advance width="589"/>
  <unicode hex="0E01"/>
  <outline>
    <contour>
      <point x="141" y="0" type="line" name="hr00"/>
      <point x="162" y="0" type="line"/>
      <point x="162" y="345" type="line" smooth="yes"/>
      <point x="162" y="355"/>
      <point x="159" y="360"/>
      <point x="150" y="363" type="curve" smooth="yes"/>
      <point x="81" y="388" type="line"/>
      <point x="97" y="465"/>
      <point x="170" y="529"/>
      <point x="286" y="529" type="curve" smooth="yes"/>
      <point x="411" y="529"/>
      <point x="483" y="471"/>
      <point x="483" y="345" type="curve" smooth="yes"/>
      <point x="483" y="0" type="line"/>
      <point x="504" y="0" type="line"/>
      <point x="504" y="345" type="line" smooth="yes"/>
      <point x="504" y="477"/>
      <point x="429" y="548"/>
      <point x="286" y="548" type="curve" smooth="yes"/>
      <point x="164" y="548"/>
      <point x="74" y="476"/>
      <point x="60" y="377" type="curve"/>
      <point x="141" y="347" type="line"/>
    </contour>
    <contour>
      <point x="504.0" y="0.0" type="move" name="bottomright"/>
    </contour>
    <contour>
      <point x="286.0" y="558.0" type="move" name="top"/>
    </contour>
    <contour>
      <point x="504.0" y="600.0" type="move" name="topright"/>
    </contour>
  </outline>
</glyph>
<glyph name="khoKhwai-thai" format="1">
  <advance width="588"/>
  <unicode hex="0E04"/>
  <outline>
    <contour>
      <point x="85" y="0" type="line" name="hr00"/>
      <point x="106" y="0" type="line"/>
      <point x="106" y="115" type="line" smooth="yes"/>
      <point x="106" y="208"/>
      <point x="182" y="253"/>
      <point x="264" y="253" type="curve" smooth="yes"/>
      <point x="308" y="253" type="line"/>
      <point x="308" y="272" type="line"/>
      <point x="267" y="272" type="line" smooth="yes"/>
      <point x="174" y="272"/>
      <point x="132" y="232"/>
      <point x="109" y="185" type="curve"/>
      <point x="106" y="185" type="line"/>
      <point x="106" y="344" type="line" smooth="yes"/>
      <point x="106" y="460"/>
      <point x="176" y="529"/>
      <point x="294" y="529" type="curve" smooth="yes"/>
      <point x="412" y="529"/>
      <point x="482" y="460"/>
      <point x="482" y="344" type="curve" smooth="yes"/>
      <point x="482" y="0" type="line"/>
      <point x="503" y="0" type="line"/>
      <point x="503" y="348" type="line" smooth="yes"/>
      <point x="503" y="470"/>
      <point x="423" y="548"/>
      <point x="294" y="548" type="curve" smooth="yes"/>
      <point x="165" y="548"/>
      <point x="85" y="470"/>
      <point x="85" y="348" type="curve" smooth="yes"/>
    </contour>
    <contour>
      <point x="503.0" y="0.0" type="move" name="bottomright"/>
    </contour>
    <contour>
      <point x="294.0" y="558.0" type="move" name="top"/>
    </contour>
    <contour>
      <point x="503.0" y="600.0" type="move" name="topright"/>
    </contour>
  </outline>
</glyph>
<glyph name="khoKhon-thai" format="1">
  <advance width="603"/>
  <unicode hex="0E05"/>
  <outline>
    <contour>
      <point x="85" y="0" type="line" name="hr00"/>
      <point x="106" y="0" type="line"/>
      <point x="106" y="115" type="line" smooth="yes"/>
      <point x="106" y="208"/>
      <point x="182" y="253"/>
      <point x="264" y="253" type="curve" smooth="yes"/>
      <point x="308" y="253" type="line"/>
      <point x="308" y="272" type="line"/>
      <point x="267" y="272" type="line" smooth="yes"/>
      <point x="174" y="272"/>
      <point x="132" y="232"/>
      <point x="109" y="185" type="curve"/>
      <point x="106" y="185" type="line"/>
      <point x="106" y="419" type="line" smooth="yes"/>
      <point x="106" y="491"/>
      <point x="137" y="528"/>
      <point x="198" y="528" type="curve" smooth="yes"/>
      <point x="267" y="528"/>
      <point x="291" y="476"/>
      <point x="293" y="418" type="curve"/>
      <point x="310" y="418" type="line"/>
      <point x="312" y="476"/>
      <point x="336" y="528"/>
      <point x="405" y="528" type="curve" smooth="yes"/>
      <point x="466" y="528"/>
      <point x="497" y="491"/>
      <point x="497" y="419" type="curve" smooth="yes"/>
      <point x="497" y="0" type="line"/>
      <point x="518" y="0" type="line"/>
      <point x="518" y="421" type="line" smooth="yes"/>
      <point x="518" y="502"/>
      <point x="477" y="548"/>
      <point x="407" y="548" type="curve" smooth="yes"/>
      <point x="344" y="548"/>
      <point x="313" y="507"/>
      <point x="304" y="458" type="curve"/>
      <point x="300" y="458" type="line"/>
      <point x="290" y="507"/>
      <point x="259" y="548"/>
      <point x="196" y="548" type="curve" smooth="yes"/>
      <point x="126" y="548"/>
      <point x="85" y="502"/>
      <point x="85" y="421" type="curve" smooth="yes"/>
    </contour>
    <contour>
      <point x="518.0" y="0.0" type="move" name="bottomright"/>
    </contour>
    <contour>
      <point x="302.0" y="558.0" type="move" name="top"/>
    </contour>
    <contour>
      <point x="518.0" y="600.0" type="move" name="topright"/>
    </contour>
  </outline>
</glyph>
<glyph name="khoRakhang-thai" format="1">
  <advance width="571"/>
  <unicode hex="0E06"/>
  <outline>
    <contour>
      <point x="302" y="-12" type="curve" smooth="yes" name="hr00"/>
      <point x="422" y="-12"/>
      <point x="486" y="59"/>
      <point x="486" y="192" type="curve" smooth="yes"/>
      <point x="486" y="536" type="line"/>
      <point x="465" y="536" type="line"/>
      <point x="465" y="196" type="line" smooth="yes"/>
      <point x="465" y="65"/>
      <point x="405" y="7"/>
      <point x="300" y="7" type="curve" smooth="yes"/>
      <point x="212" y="7"/>
      <point x="132" y="55"/>
      <point x="132" y="153" type="curve" smooth="yes"/>
      <point x="132" y="194" type="line" smooth="yes"/>
      <point x="132" y="245"/>
      <point x="151" y="279"/>
      <point x="183" y="326" type="curve" smooth="yes"/>
      <point x="221" y="381"/>
      <point x="246" y="415"/>
      <point x="246" y="461" type="curve" smooth="yes"/>
      <point x="246" y="513"/>
      <point x="212" y="548"/>
      <point x="161" y="548" type="curve" smooth="yes"/>
      <point x="120" y="548"/>
      <point x="86" y="525"/>
      <point x="78" y="474" type="curve"/>
      <point x="75" y="474" type="line"/>
      <point x="75" y="548" type="line"/>
      <point x="56" y="548" type="line"/>
      <point x="56" y="422" type="line"/>
      <point x="75" y="422" type="line"/>
      <point x="84" y="502"/>
      <point x="114" y="529"/>
      <point x="159" y="529" type="curve" smooth="yes"/>
      <point x="198" y="529"/>
      <point x="225" y="503"/>
      <point x="225" y="461" type="curve" smooth="yes"/>
      <point x="225" y="415"/>
      <point x="199" y="380"/>
      <point x="166" y="336" type="curve" smooth="yes"/>
      <point x="127" y="284"/>
      <point x="111" y="245"/>
      <point x="111" y="185" type="curve" smooth="yes"/>
      <point x="111" y="0" type="line"/>
      <point x="132" y="0" type="line"/>
      <point x="132" y="81" type="line"/>
      <point x="135" y="81" type="line"/>
      <point x="154" y="33"/>
      <point x="206" y="-12"/>
    </contour>
    <contour>
      <point x="486.0" y="0.0" type="move" name="bottomright"/>
    </contour>
    <contour>
      <point x="301.0" y="558.0" type="move" name="top"/>
    </contour>
    <contour>
      <point x="486.0" y="600.0" type="move" name="topright"/>
    </contour>
  </outline>
</glyph>
<glyph name="ngoNgu-thai" format="1">
  <advance width="521"/>
  <unicode hex="0E07"/>
  <outline>
    <contour>
      <point x="223" y="0" type="line" name="hr00"/>
      <point x="260" y="0" type="line" smooth="yes"/>
      <point x="386" y="0"/>
      <point x="451" y="91"/>
      <point x="451" y="268" type="curve" smooth="yes"/>
      <point x="451" y="445"/>
      <point x="386" y="536"/>
      <point x="260" y="536" type="curve" smooth="yes"/>
      <point x="236" y="536" type="line"/>
      <point x="236" y="517" type="line"/>
      <point x="259" y="517" type="line" smooth="yes"/>
      <point x="367" y="517"/>
      <point x="428" y="437"/>
      <point x="428" y="299" type="curve" smooth="yes"/>
      <point x="428" y="237" type="line" smooth="yes"/>
      <point x="428" y="99"/>
      <point x="366" y="19"/>
      <point x="259" y="19" type="curve" smooth="yes"/>
      <point x="237" y="19" type="line"/>
      <point x="73" y="388" type="line"/>
      <point x="50" y="388" type="line"/>
    </contour>
    <contour>
      <point x="441.0" y="0.0" type="move" name="bottomright"/>
    </contour>
    <contour>
      <point x="264.0" y="558.0" type="move" name="top"/>
    </contour>
    <contour>
      <point x="441.0" y="600.0" type="move" name="topright"/>
    </contour>
  </outline>
</glyph>
<glyph name="choChan-thai" format="1">
  <advance width="547"/>
  <unicode hex="0E08"/>
  <outline>
    <contour>
      <point x="248" y="0" type="line" name="hr00"/>
      <point x="298" y="0" type="line" smooth="yes"/>
      <point x="413" y="0"/>
      <point x="477" y="93"/>
      <point x="477" y="274" type="curve" smooth="yes"/>
      <point x="477" y="455"/>
      <point x="398" y="548"/>
      <point x="252" y="548" type="curve" smooth="yes"/>
      <point x="124" y="548"/>
      <point x="58" y="482"/>
      <point x="30" y="417" type="curve"/>
      <point x="47" y="409" type="line"/>
      <point x="74" y="475"/>
      <point x="144" y="529"/>
      <point x="251" y="529" type="curve" smooth="yes"/>
      <point x="376" y="529"/>
      <point x="454" y="446"/>
      <point x="454" y="305" type="curve" smooth="yes"/>
      <point x="454" y="243" type="line" smooth="yes"/>
      <point x="454" y="101"/>
      <point x="394" y="19"/>
      <point x="298" y="19" type="curve" smooth="yes"/>
      <point x="262" y="19" type="line"/>
      <point x="177" y="261" type="line" smooth="yes"/>
      <point x="174" y="269"/>
      <point x="169" y="272"/>
      <point x="160" y="272" type="curve" smooth="yes"/>
      <point x="76" y="272" type="line"/>
      <point x="76" y="253" type="line"/>
      <point x="159" y="253" type="line"/>
    </contour>
    <contour>
      <point x="442.0" y="0.0" type="move" name="bottomright"/>
    </contour>
    <contour>
      <point x="263.0" y="558.0" type="move" name="top"/>
    </contour>
    <contour>
      <point x="442.0" y="600.0" type="move" name="topright"/>
    </contour>
  </outline>
</glyph>
<glyph name="soSo-thai" format="1">
  <advance width="543"/>
  <unicode hex="0E0B"/>
  <outline>
    <contour>
      <point x="283" y="-12" type="curve" smooth="yes" name="hr00"/>
      <point x="401" y="-12"/>
      <point x="469" y="61"/>
      <point x="469" y="196" type="curve" smooth="yes"/>
      <point x="469" y="303"/>
      <point x="438" y="375"/>
      <point x="379" y="391" type="curve"/>
      <point x="379" y="394" type="line"/>
      <point x="439" y="402"/>
      <point x="471" y="436"/>
      <point x="471" y="493" type="curve" smooth="yes"/>
      <point x="471" y="552" type="line"/>
      <point x="450" y="552" type="line"/>
      <point x="450" y="495" type="line" smooth="yes"/>
      <point x="450" y="431"/>
      <point x="412" y="403"/>
      <point x="348" y="403" type="curve" smooth="yes"/>
      <point x="311" y="403" type="line"/>
      <point x="311" y="386" type="line"/>
      <point x="345" y="386" type="line" smooth="yes"/>
      <point x="408" y="386"/>
      <point x="446" y="325"/>
      <point x="446" y="222" type="curve" smooth="yes"/>
      <point x="446" y="180" type="line" smooth="yes"/>
      <point x="446" y="65"/>
      <point x="388" y="7"/>
      <point x="283" y="7" type="curve" smooth="yes"/>
      <point x="187" y="7"/>
      <point x="129" y="62"/>
      <point x="129" y="162" type="curve" smooth="yes"/>
      <point x="129" y="181" type="line" smooth="yes"/>
      <point x="129" y="245"/>
      <point x="148" y="280"/>
      <point x="180" y="326" type="curve" smooth="yes"/>
      <point x="218" y="381"/>
      <point x="243" y="415"/>
      <point x="243" y="461" type="curve" smooth="yes"/>
      <point x="243" y="513"/>
      <point x="209" y="548"/>
      <point x="158" y="548" type="curve" smooth="yes"/>
      <point x="117" y="548"/>
      <point x="83" y="524"/>
      <point x="75" y="473" type="curve"/>
      <point x="72" y="473" type="line"/>
      <point x="72" y="548" type="line"/>
      <point x="53" y="548" type="line"/>
      <point x="53" y="422" type="line"/>
      <point x="72" y="422" type="line"/>
      <point x="81" y="502"/>
      <point x="111" y="529"/>
      <point x="156" y="529" type="curve" smooth="yes"/>
      <point x="195" y="529"/>
      <point x="222" y="503"/>
      <point x="222" y="461" type="curve" smooth="yes"/>
      <point x="222" y="416"/>
      <point x="198" y="384"/>
      <point x="163" y="335" type="curve" smooth="yes"/>
      <point x="125" y="282"/>
      <point x="106" y="241"/>
      <point x="106" y="172" type="curve" smooth="yes"/>
      <point x="106" y="56"/>
      <point x="175" y="-12"/>
    </contour>
    <contour>
      <point x="466.0" y="0.0" type="move" name="bottomright"/>
    </contour>
    <contour>
      <point x="284.0" y="558.0" type="move" name="top"/>
    </contour>
    <contour>
      <point x="471.0" y="600.0" type="move" name="topright"/>
    </contour>
  </outline>
</glyph>
<glyph name="choChoe-thai" format="1">
  <advance width="924"/>
  <unicode hex="0E0C"/>
  <outline>
    <contour>
      <point x="666" y="-12" type="curve" smooth="yes" name="hr00"/>
      <point x="779" y="-12"/>
      <point x="839" y="59"/>
      <point x="839" y="192" type="curve" smooth="yes"/>
      <point x="839" y="536" type="line"/>
      <point x="818" y="536" type="line"/>
      <point x="818" y="196" type="line" smooth="yes"/>
      <point x="818" y="65"/>
      <point x="762" y="7"/>
      <point x="664" y="7" type="curve" smooth="yes"/>
      <point x="582" y="7"/>
      <point x="507" y="55"/>
      <point x="507" y="153" type="curve" smooth="yes"/>
      <point x="507" y="346" type="line" smooth="yes"/>
      <point x="507" y="477"/>
      <point x="431" y="548"/>
      <point x="287" y="548" type="curve" smooth="yes"/>
      <point x="165" y="548"/>
      <point x="74" y="476"/>
      <point x="60" y="377" type="curve"/>
      <point x="141" y="347" type="line"/>
      <point x="141" y="29" type="line" smooth="yes"/>
      <point x="141" y="9"/>
      <point x="150" y="0"/>
      <point x="170" y="0" type="curve" smooth="yes"/>
      <point x="247" y="0" type="line"/>
      <point x="247" y="19" type="line"/>
      <point x="162" y="19" type="line"/>
      <point x="162" y="345" type="line" smooth="yes"/>
      <point x="162" y="355"/>
      <point x="159" y="360"/>
      <point x="150" y="363" type="curve" smooth="yes"/>
      <point x="81" y="388" type="line"/>
      <point x="97" y="465"/>
      <point x="171" y="529"/>
      <point x="287" y="529" type="curve" smooth="yes"/>
      <point x="413" y="529"/>
      <point x="486" y="471"/>
      <point x="486" y="346" type="curve" smooth="yes"/>
      <point x="486" y="0" type="line"/>
      <point x="507" y="0" type="line"/>
      <point x="507" y="81" type="line"/>
      <point x="510" y="81" type="line"/>
      <point x="527" y="33"/>
      <point x="577" y="-12"/>
    </contour>
    <contour>
      <point x="839.0" y="0.0" type="move" name="bottomright"/>
    </contour>
    <contour>
      <point x="497.0" y="558.0" type="move" name="top"/>
    </contour>
    <contour>
      <point x="839.0" y="600.0" type="move" name="topright"/>
    </contour>
  </outline>
</glyph>
<glyph name="doChada-thai" format="1">
  <advance width="592"/>
  <unicode hex="0E0E"/>
  <outline>
    <contour>
      <point x="171" y="-220" type="line" name="hr00"/>
      <point x="216" y="-152"/>
      <point x="271" y="-127"/>
      <point x="335" y="-127" type="curve" smooth="yes"/>
      <point x="414" y="-127"/>
      <point x="464" y="-170"/>
      <point x="489" y="-220" type="curve"/>
      <point x="507" y="-220" type="line"/>
      <point x="507" y="344" type="line" smooth="yes"/>
      <point x="507" y="477"/>
      <point x="433" y="548"/>
      <point x="291" y="548" type="curve" smooth="yes"/>
      <point x="169" y="548"/>
      <point x="80" y="476"/>
      <point x="66" y="377" type="curve"/>
      <point x="147" y="347" type="line"/>
      <point x="147" y="19" type="line"/>
      <point x="62" y="19" type="line"/>
      <point x="62" y="0" type="line"/>
      <point x="139" y="0" type="line" smooth="yes"/>
      <point x="159" y="0"/>
      <point x="168" y="9"/>
      <point x="168" y="29" type="curve" smooth="yes"/>
      <point x="168" y="345" type="line" smooth="yes"/>
      <point x="168" y="355"/>
      <point x="165" y="360"/>
      <point x="156" y="363" type="curve" smooth="yes"/>
      <point x="87" y="388" type="line"/>
      <point x="103" y="465"/>
      <point x="175" y="529"/>
      <point x="291" y="529" type="curve" smooth="yes"/>
      <point x="415" y="529"/>
      <point x="486" y="471"/>
      <point x="486" y="344" type="curve" smooth="yes"/>
      <point x="486" y="-184" type="line"/>
      <point x="484" y="-184" type="line"/>
      <point x="450" y="-136"/>
      <point x="397" y="-108"/>
      <point x="335" y="-108" type="curve" smooth="yes"/>
      <point x="250" y="-108"/>
      <point x="197" y="-146"/>
      <point x="155" y="-207" type="curve"/>
    </contour>
    <contour>
      <point x="291.0" y="558.0" type="move" name="top"/>
    </contour>
    <contour>
      <point x="507.0" y="600.0" type="move" name="topright"/>
    </contour>
  </outline>
</glyph>
<glyph name="toPatak-thai" format="1">
  <advance width="592"/>
  <unicode hex="0E0F"/>
  <outline>
    <contour>
      <point x="157" y="-220" type="line" name="hr00"/>
      <point x="215" y="-220" type="line" smooth="yes"/>
      <point x="264" y="-220"/>
      <point x="297" y="-191"/>
      <point x="308" y="-132" type="curve"/>
      <point x="311" y="-132" type="line"/>
      <point x="323" y="-191"/>
      <point x="360" y="-220"/>
      <point x="407" y="-220" type="curve" smooth="yes"/>
      <point x="471" y="-220"/>
      <point x="507" y="-178"/>
      <point x="507" y="-100" type="curve" smooth="yes"/>
      <point x="507" y="344" type="line" smooth="yes"/>
      <point x="507" y="477"/>
      <point x="433" y="548"/>
      <point x="291" y="548" type="curve" smooth="yes"/>
      <point x="169" y="548"/>
      <point x="80" y="476"/>
      <point x="66" y="377" type="curve"/>
      <point x="147" y="347" type="line"/>
      <point x="147" y="19" type="line"/>
      <point x="62" y="19" type="line"/>
      <point x="62" y="0" type="line"/>
      <point x="139" y="0" type="line" smooth="yes"/>
      <point x="159" y="0"/>
      <point x="168" y="9"/>
      <point x="168" y="29" type="curve" smooth="yes"/>
      <point x="168" y="345" type="line" smooth="yes"/>
      <point x="168" y="355"/>
      <point x="165" y="360"/>
      <point x="156" y="363" type="curve" smooth="yes"/>
      <point x="87" y="388" type="line"/>
      <point x="103" y="465"/>
      <point x="175" y="529"/>
      <point x="291" y="529" type="curve" smooth="yes"/>
      <point x="415" y="529"/>
      <point x="486" y="471"/>
      <point x="486" y="344" type="curve" smooth="yes"/>
      <point x="486" y="-98" type="line" smooth="yes"/>
      <point x="486" y="-166"/>
      <point x="459" y="-201"/>
      <point x="406" y="-201" type="curve" smooth="yes"/>
      <point x="355" y="-201"/>
      <point x="326" y="-163"/>
      <point x="319" y="-110" type="curve"/>
      <point x="302" y="-110" type="line"/>
      <point x="295" y="-163"/>
      <point x="268" y="-201"/>
      <point x="212" y="-201" type="curve" smooth="yes"/>
      <point x="157" y="-201" type="line"/>
    </contour>
    <contour>
      <point x="291.0" y="558.0" type="move" name="top"/>
    </contour>
    <contour>
      <point x="507.0" y="600.0" type="move" name="topright"/>
    </contour>
  </outline>
</glyph>
<glyph name="thoThan-thai" format="1">
  <advance width="573"/>
  <unicode hex="0E10"/>
  <outline>
    <contour>
      <point x="248" y="0" type="line" name="hr00"/>
      <point x="298" y="0" type="line" smooth="yes"/>
      <point x="413" y="0"/>
      <point x="477" y="93"/>
      <point x="477" y="274" type="curve" smooth="yes"/>
      <point x="477" y="404"/>
      <point x="436" y="489"/>
      <point x="359" y="526" type="curve"/>
      <point x="359" y="529" type="line"/>
      <point x="554" y="529" type="line"/>
      <point x="554" y="548" type="line"/>
      <point x="359" y="548" type="line" smooth="yes"/>
      <point x="348" y="548"/>
      <point x="343" y="544"/>
      <point x="342" y="533" type="curve"/>
      <point x="316" y="543"/>
      <point x="286" y="548"/>
      <point x="252" y="548" type="curve" smooth="yes"/>
      <point x="124" y="548"/>
      <point x="58" y="482"/>
      <point x="30" y="417" type="curve"/>
      <point x="47" y="409" type="line"/>
      <point x="74" y="475"/>
      <point x="144" y="529"/>
      <point x="251" y="529" type="curve" smooth="yes"/>
      <point x="376" y="529"/>
      <point x="454" y="446"/>
      <point x="454" y="305" type="curve" smooth="yes"/>
      <point x="454" y="243" type="line" smooth="yes"/>
      <point x="454" y="101"/>
      <point x="394" y="19"/>
      <point x="298" y="19" type="curve" smooth="yes"/>
      <point x="262" y="19" type="line"/>
      <point x="177" y="261" type="line" smooth="yes"/>
      <point x="174" y="269"/>
      <point x="169" y="272"/>
      <point x="160" y="272" type="curve" smooth="yes"/>
      <point x="76" y="272" type="line"/>
      <point x="76" y="253" type="line"/>
      <point x="159" y="253" type="line"/>
    </contour>
    <contour>
      <point x="92" y="-220" type="line"/>
      <point x="150" y="-220" type="line" smooth="yes"/>
      <point x="199" y="-220"/>
      <point x="232" y="-191"/>
      <point x="243" y="-132" type="curve"/>
      <point x="246" y="-132" type="line"/>
      <point x="258" y="-191"/>
      <point x="295" y="-220"/>
      <point x="342" y="-220" type="curve" smooth="yes"/>
      <point x="406" y="-220"/>
      <point x="442" y="-178"/>
      <point x="442" y="-100" type="curve" smooth="yes"/>
      <point x="442" y="-81" type="line"/>
      <point x="421" y="-81" type="line"/>
      <point x="421" y="-98" type="line" smooth="yes"/>
      <point x="421" y="-166"/>
      <point x="394" y="-201"/>
      <point x="341" y="-201" type="curve" smooth="yes"/>
      <point x="290" y="-201"/>
      <point x="261" y="-163"/>
      <point x="254" y="-110" type="curve"/>
      <point x="237" y="-110" type="line"/>
      <point x="230" y="-163"/>
      <point x="203" y="-201"/>
      <point x="147" y="-201" type="curve" smooth="yes"/>
      <point x="92" y="-201" type="line"/>
    </contour>
    <contour>
      <point x="263.0" y="558.0" type="move" name="top"/>
    </contour>
    <contour>
      <point x="442.0" y="600.0" type="move" name="topright"/>
    </contour>
  </outline>
</glyph>
<glyph name="thoNangmontho-thai" format="1">
  <advance width="584"/>
  <unicode hex="0E11"/>
  <outline>
    <contour>
      <point x="111" y="0" type="line" name="hr00"/>
      <point x="132" y="0" type="line"/>
      <point x="132" y="194" type="line" smooth="yes"/>
      <point x="132" y="245"/>
      <point x="151" y="279"/>
      <point x="183" y="326" type="curve" smooth="yes"/>
      <point x="221" y="381"/>
      <point x="316" y="529"/>
      <point x="392" y="529" type="curve" smooth="yes"/>
      <point x="443" y="529"/>
      <point x="478" y="493"/>
      <point x="478" y="389" type="curve" smooth="yes"/>
      <point x="478" y="0" type="line"/>
      <point x="499" y="0" type="line"/>
      <point x="499" y="393" type="line" smooth="yes"/>
      <point x="499" y="501"/>
      <point x="460" y="548"/>
      <point x="394" y="548" type="curve" smooth="yes"/>
      <point x="335" y="548"/>
      <point x="282" y="484"/>
      <point x="233" y="421" type="curve"/>
      <point x="231" y="422" type="line"/>
      <point x="237" y="438"/>
      <point x="241" y="452"/>
      <point x="241" y="466" type="curve" smooth="yes"/>
      <point x="242" y="515"/>
      <point x="206" y="548"/>
      <point x="161" y="548" type="curve" smooth="yes"/>
      <point x="120" y="548"/>
      <point x="86" y="525"/>
      <point x="78" y="474" type="curve"/>
      <point x="75" y="474" type="line"/>
      <point x="75" y="548" type="line"/>
      <point x="56" y="548" type="line"/>
      <point x="56" y="422" type="line"/>
      <point x="75" y="422" type="line"/>
      <point x="84" y="502"/>
      <point x="114" y="529"/>
      <point x="159" y="529" type="curve" smooth="yes"/>
      <point x="198" y="529"/>
      <point x="225" y="503"/>
      <point x="225" y="461" type="curve" smooth="yes"/>
      <point x="225" y="415"/>
      <point x="199" y="380"/>
      <point x="166" y="336" type="curve" smooth="yes"/>
      <point x="127" y="284"/>
      <point x="111" y="245"/>
      <point x="111" y="185" type="curve" smooth="yes"/>
    </contour>
    <contour>
      <point x="499.0" y="0.0" type="move" name="bottomright"/>
    </contour>
    <contour>
      <point x="284.0" y="558.0" type="move" name="top"/>
    </contour>
    <contour>
      <point x="499.0" y="600.0" type="move" name="topright"/>
    </contour>
  </outline>
</glyph>
<glyph name="thoPhuthao-thai" format="1">
  <advance width="942"/>
  <unicode hex="0E12"/>
  <outline>
    <contour>
      <point x="277" y="-12" type="curve" smooth="yes" name="hr00"/>
      <point x="305" y="-12"/>
      <point x="329" y="-9"/>
      <point x="350" y="-5" type="curve"/>
      <point x="346" y="14" type="line"/>
      <point x="321" y="8"/>
      <point x="299" y="7"/>
      <point x="277" y="7" type="curve" smooth="yes"/>
      <point x="160" y="7"/>
      <point x="103" y="118"/>
      <point x="103" y="244" type="curve" smooth="yes"/>
      <point x="103" y="307" type="line" smooth="yes"/>
      <point x="103" y="430"/>
      <point x="143" y="529"/>
      <point x="219" y="529" type="curve" smooth="yes"/>
      <point x="278" y="529"/>
      <point x="301" y="476"/>
      <point x="303" y="418" type="curve"/>
      <point x="320" y="418" type="line"/>
      <point x="322" y="476"/>
      <point x="348" y="529"/>
      <point x="415" y="529" type="curve" smooth="yes"/>
      <point x="475" y="529"/>
      <point x="504" y="487"/>
      <point x="504" y="416" type="curve" smooth="yes"/>
      <point x="504" y="0" type="line"/>
      <point x="525" y="0" type="line"/>
      <point x="525" y="81" type="line"/>
      <point x="528" y="81" type="line"/>
      <point x="545" y="33"/>
      <point x="595" y="-12"/>
      <point x="684" y="-12" type="curve" smooth="yes"/>
      <point x="797" y="-12"/>
      <point x="857" y="59"/>
      <point x="857" y="192" type="curve" smooth="yes"/>
      <point x="857" y="536" type="line"/>
      <point x="836" y="536" type="line"/>
      <point x="836" y="196" type="line" smooth="yes"/>
      <point x="836" y="65"/>
      <point x="780" y="7"/>
      <point x="682" y="7" type="curve" smooth="yes"/>
      <point x="600" y="7"/>
      <point x="525" y="55"/>
      <point x="525" y="153" type="curve" smooth="yes"/>
      <point x="525" y="422" type="line" smooth="yes"/>
      <point x="525" y="501"/>
      <point x="486" y="548"/>
      <point x="416" y="548" type="curve" smooth="yes"/>
      <point x="355" y="548"/>
      <point x="322" y="507"/>
      <point x="314" y="458" type="curve"/>
      <point x="310" y="458" type="line"/>
      <point x="302" y="507"/>
      <point x="271" y="548"/>
      <point x="219" y="548" type="curve" smooth="yes"/>
      <point x="134" y="548"/>
      <point x="80" y="458"/>
      <point x="80" y="276" type="curve" smooth="yes"/>
      <point x="80" y="101"/>
      <point x="149" y="-12"/>
    </contour>
    <contour>
      <point x="857.0" y="0.0" type="move" name="bottomright"/>
    </contour>
    <contour>
      <point x="515.0" y="558.0" type="move" name="top"/>
    </contour>
    <contour>
      <point x="857.0" y="600.0" type="move" name="topright"/>
    </contour>
  </outline>
</glyph>
<glyph name="noNen-thai" format="1">
  <advance width="921"/>
  <unicode hex="0E13"/>
  <outline>
    <contour>
      <point x="638" y="-12" type="curve" smooth="yes" name="hr00"/>
      <point x="728" y="-12"/>
      <point x="777" y="33"/>
      <point x="795" y="81" type="curve"/>
      <point x="798" y="81" type="line"/>
      <point x="798" y="23" type="line" smooth="yes"/>
      <point x="798" y="7"/>
      <point x="805" y="0"/>
      <point x="825" y="0" type="curve" smooth="yes"/>
      <point x="904" y="0" type="line"/>
      <point x="904" y="19" type="line"/>
      <point x="819" y="19" type="line"/>
      <point x="819" y="536" type="line"/>
      <point x="798" y="536" type="line"/>
      <point x="798" y="153" type="line" smooth="yes"/>
      <point x="798" y="55"/>
      <point x="723" y="7"/>
      <point x="640" y="7" type="curve" smooth="yes"/>
      <point x="541" y="7"/>
      <point x="485" y="65"/>
      <point x="485" y="196" type="curve" smooth="yes"/>
      <point x="485" y="341" type="line" smooth="yes"/>
      <point x="485" y="477"/>
      <point x="412" y="548"/>
      <point x="276" y="548" type="curve" smooth="yes"/>
      <point x="158" y="548"/>
      <point x="73" y="476"/>
      <point x="60" y="377" type="curve"/>
      <point x="141" y="347" type="line"/>
      <point x="141" y="29" type="line" smooth="yes"/>
      <point x="141" y="9"/>
      <point x="150" y="0"/>
      <point x="170" y="0" type="curve" smooth="yes"/>
      <point x="247" y="0" type="line"/>
      <point x="247" y="19" type="line"/>
      <point x="162" y="19" type="line"/>
      <point x="162" y="345" type="line" smooth="yes"/>
      <point x="162" y="355"/>
      <point x="159" y="360"/>
      <point x="150" y="363" type="curve" smooth="yes"/>
      <point x="81" y="388" type="line"/>
      <point x="96" y="465"/>
      <point x="166" y="529"/>
      <point x="276" y="529" type="curve" smooth="yes"/>
      <point x="395" y="529"/>
      <point x="464" y="471"/>
      <point x="464" y="341" type="curve" smooth="yes"/>
      <point x="464" y="192" type="line" smooth="yes"/>
      <point x="464" y="59"/>
      <point x="525" y="-12"/>
    </contour>
    <contour>
      <point x="819.0" y="0.0" type="move" name="bottomright"/>
    </contour>
    <contour>
      <point x="475.0" y="558.0" type="move" name="top"/>
    </contour>
    <contour>
      <point x="819.0" y="600.0" type="move" name="topright"/>
    </contour>
  </outline>
</glyph>
<glyph name="doDek-thai" format="1">
  <advance width="622"/>
  <unicode hex="0E14"/>
  <outline>
    <contour>
      <point x="306" y="-12" type="curve" smooth="yes" name="hr00"/>
      <point x="328" y="-12"/>
      <point x="352" y="-10"/>
      <point x="372" y="-4" type="curve"/>
      <point x="368" y="14" type="line"/>
      <point x="346" y="8"/>
      <point x="327" y="7"/>
      <point x="306" y="7" type="curve" smooth="yes"/>
      <point x="182" y="7"/>
      <point x="103" y="93"/>
      <point x="103" y="240" type="curve" smooth="yes"/>
      <point x="103" y="296" type="line" smooth="yes"/>
      <point x="103" y="439"/>
      <point x="184" y="529"/>
      <point x="317" y="529" type="curve" smooth="yes"/>
      <point x="441" y="529"/>
      <point x="516" y="455"/>
      <point x="516" y="331" type="curve" smooth="yes"/>
      <point x="516" y="0" type="line"/>
      <point x="537" y="0" type="line"/>
      <point x="537" y="334" type="line" smooth="yes"/>
      <point x="537" y="463"/>
      <point x="450" y="548"/>
      <point x="318" y="548" type="curve" smooth="yes"/>
      <point x="171" y="548"/>
      <point x="80" y="447"/>
      <point x="80" y="268" type="curve" smooth="yes"/>
      <point x="80" y="85"/>
      <point x="168" y="-12"/>
    </contour>
    <contour>
      <point x="537.0" y="0.0" type="move" name="bottomright"/>
    </contour>
    <contour>
      <point x="320.0" y="558.0" type="move" name="top"/>
    </contour>
    <contour>
      <point x="537.0" y="600.0" type="move" name="topright"/>
    </contour>
  </outline>
</glyph>
<glyph name="toTao-thai" format="1">
  <advance width="637"/>
  <unicode hex="0E15"/>
  <outline>
    <contour>
      <point x="287" y="-12" type="curve" smooth="yes" name="hr00"/>
      <point x="315" y="-12"/>
      <point x="339" y="-9"/>
      <point x="360" y="-5" type="curve"/>
      <point x="356" y="14" type="line"/>
      <point x="331" y="8"/>
      <point x="309" y="7"/>
      <point x="287" y="7" type="curve" smooth="yes"/>
      <point x="163" y="7"/>
      <point x="103" y="119"/>
      <point x="103" y="244" type="curve" smooth="yes"/>
      <point x="103" y="307" type="line" smooth="yes"/>
      <point x="103" y="430"/>
      <point x="143" y="529"/>
      <point x="227" y="529" type="curve" smooth="yes"/>
      <point x="294" y="529"/>
      <point x="319" y="476"/>
      <point x="321" y="418" type="curve"/>
      <point x="338" y="418" type="line"/>
      <point x="340" y="476"/>
      <point x="365" y="529"/>
      <point x="433" y="529" type="curve" smooth="yes"/>
      <point x="498" y="529"/>
      <point x="531" y="491"/>
      <point x="531" y="419" type="curve" smooth="yes"/>
      <point x="531" y="0" type="line"/>
      <point x="552" y="0" type="line"/>
      <point x="552" y="421" type="line" smooth="yes"/>
      <point x="552" y="502"/>
      <point x="509" y="548"/>
      <point x="435" y="548" type="curve" smooth="yes"/>
      <point x="372" y="548"/>
      <point x="340" y="507"/>
      <point x="332" y="458" type="curve"/>
      <point x="328" y="458" type="line"/>
      <point x="320" y="507"/>
      <point x="287" y="548"/>
      <point x="225" y="548" type="curve" smooth="yes"/>
      <point x="134" y="548"/>
      <point x="80" y="458"/>
      <point x="80" y="276" type="curve" smooth="yes"/>
      <point x="80" y="101"/>
      <point x="153" y="-12"/>
    </contour>
    <contour>
      <point x="552.0" y="0.0" type="move" name="bottomright"/>
    </contour>
    <contour>
      <point x="330.0" y="558.0" type="move" name="top"/>
    </contour>
    <contour>
      <point x="552.0" y="600.0" type="move" name="topright"/>
    </contour>
  </outline>
</glyph>
<glyph name="thoThong-thai" format="1">
  <advance width="548"/>
  <unicode hex="0E18"/>
  <outline>
    <contour>
      <point x="88" y="0" type="line" name="hr00"/>
      <point x="439" y="0" type="line" smooth="yes"/>
      <point x="459" y="0"/>
      <point x="468" y="9"/>
      <point x="468" y="29" type="curve" smooth="yes"/>
      <point x="468" y="191" type="line" smooth="yes"/>
      <point x="468" y="284"/>
      <point x="419" y="323"/>
      <point x="312" y="333" type="curve" smooth="yes"/>
      <point x="99" y="352" type="line"/>
      <point x="99" y="391" type="line" smooth="yes"/>
      <point x="99" y="481"/>
      <point x="170" y="529"/>
      <point x="279" y="529" type="curve" smooth="yes"/>
      <point x="371" y="529"/>
      <point x="414" y="496"/>
      <point x="451" y="459" type="curve"/>
      <point x="467" y="473" type="line"/>
      <point x="430" y="512"/>
      <point x="377" y="548"/>
      <point x="279" y="548" type="curve" smooth="yes"/>
      <point x="154" y="548"/>
      <point x="78" y="488"/>
      <point x="78" y="384" type="curve" smooth="yes"/>
      <point x="78" y="336" type="line"/>
      <point x="312" y="316" type="line" smooth="yes"/>
      <point x="420" y="307"/>
      <point x="447" y="261"/>
      <point x="447" y="191" type="curve" smooth="yes"/>
      <point x="447" y="19" type="line"/>
      <point x="109" y="19" type="line"/>
      <point x="109" y="195" type="line"/>
      <point x="88" y="195" type="line"/>
    </contour>
    <contour>
      <point x="468.0" y="0.0" type="move" name="bottomright"/>
    </contour>
    <contour>
      <point x="274.0" y="558.0" type="move" name="top"/>
    </contour>
    <contour>
      <point x="468.0" y="600.0" type="move" name="topright"/>
    </contour>
  </outline>
</glyph>
<glyph name="phoPhung-thai" format="1">
  <advance width="666"/>
  <unicode hex="0E1C"/>
  <outline>
    <contour>
      <point x="215" y="-12" type="curve" smooth="yes" name="hr00"/>
      <point x="277" y="-12"/>
      <point x="320" y="29"/>
      <point x="332" y="102" type="curve"/>
      <point x="336" y="102" type="line"/>
      <point x="348" y="29"/>
      <point x="392" y="-12"/>
      <point x="455" y="-12" type="curve" smooth="yes"/>
      <point x="535" y="-12"/>
      <point x="581" y="40"/>
      <point x="581" y="134" type="curve" smooth="yes"/>
      <point x="581" y="536" type="line"/>
      <point x="560" y="536" type="line"/>
      <point x="560" y="138" type="line" smooth="yes"/>
      <point x="560" y="51"/>
      <point x="523" y="7"/>
      <point x="454" y="7" type="curve" smooth="yes"/>
      <point x="388" y="7"/>
      <point x="344" y="63"/>
      <point x="344" y="162" type="curve" smooth="yes"/>
      <point x="344" y="243" type="line"/>
      <point x="324" y="243" type="line"/>
      <point x="324" y="162" type="line" smooth="yes"/>
      <point x="324" y="63"/>
      <point x="282" y="7"/>
      <point x="216" y="7" type="curve" smooth="yes"/>
      <point x="136" y="7"/>
      <point x="103" y="69"/>
      <point x="103" y="233" type="curve" smooth="yes"/>
      <point x="103" y="295" type="line" smooth="yes"/>
      <point x="103" y="459"/>
      <point x="165" y="517"/>
      <point x="252" y="517" type="curve" smooth="yes"/>
      <point x="286" y="517" type="line"/>
      <point x="286" y="536" type="line"/>
      <point x="254" y="536" type="line" smooth="yes"/>
      <point x="160" y="536"/>
      <point x="80" y="481"/>
      <point x="80" y="264" type="curve" smooth="yes"/>
      <point x="80" y="47"/>
      <point x="131" y="-12"/>
    </contour>
    <contour>
      <point x="581.0" y="0.0" type="move" name="bottomright"/>
    </contour>
    <contour>
      <point x="349.0" y="558.0" type="move" name="top"/>
    </contour>
    <contour>
      <point x="581.0" y="600.0" type="move" name="topright"/>
    </contour>
  </outline>
</glyph>
<glyph name="phoPhan-thai" format="1">
  <advance width="699"/>
  <unicode hex="0E1E"/>
  <outline>
    <contour>
      <point x="155" y="0" type="line" name="hr00"/>
      <point x="186" y="0" type="line"/>
      <point x="332" y="465" type="line"/>
      <point x="347" y="514" type="line"/>
      <point x="350" y="514" type="line"/>
      <point x="365" y="465" type="line"/>
      <point x="513" y="0" type="line"/>
      <point x="545" y="0" type="line"/>
      <point x="629" y="536" type="line"/>
      <point x="609" y="536" type="line"/>
      <point x="537" y="81" type="line"/>
      <point x="528" y="23" type="line"/>
      <point x="525" y="23" type="line"/>
      <point x="507" y="81" type="line"/>
      <point x="364" y="536" type="line"/>
      <point x="334" y="536" type="line"/>
      <point x="191" y="81" type="line"/>
      <point x="174" y="23" type="line"/>
      <point x="171" y="23" type="line"/>
      <point x="161" y="81" type="line"/>
      <point x="90" y="536" type="line"/>
      <point x="70" y="536" type="line"/>
    </contour>
    <contour>
      <point x="543.0" y="0.0" type="move" name="bottomright"/>
    </contour>
    <contour>
      <point x="349.0" y="558.0" type="move" name="top"/>
    </contour>
    <contour>
      <point x="628.0" y="600.0" type="move" name="topright"/>
    </contour>
  </outline>
</glyph>
<glyph name="phoSamphao-thai" format="1">
  <advance width="592"/>
  <unicode hex="0E20"/>
  <outline>
    <contour>
      <point x="62" y="0" type="line" name="hr00"/>
      <point x="139" y="0" type="line" smooth="yes"/>
      <point x="159" y="0"/>
      <point x="168" y="9"/>
      <point x="168" y="29" type="curve" smooth="yes"/>
      <point x="168" y="345" type="line" smooth="yes"/>
      <point x="168" y="355"/>
      <point x="165" y="360"/>
      <point x="156" y="363" type="curve" smooth="yes"/>
      <point x="87" y="388" type="line"/>
      <point x="103" y="465"/>
      <point x="175" y="529"/>
      <point x="291" y="529" type="curve" smooth="yes"/>
      <point x="415" y="529"/>
      <point x="486" y="471"/>
      <point x="486" y="344" type="curve" smooth="yes"/>
      <point x="486" y="0" type="line"/>
      <point x="507" y="0" type="line"/>
      <point x="507" y="344" type="line" smooth="yes"/>
      <point x="507" y="477"/>
      <point x="433" y="548"/>
      <point x="291" y="548" type="curve" smooth="yes"/>
      <point x="169" y="548"/>
      <point x="80" y="476"/>
      <point x="66" y="377" type="curve"/>
      <point x="147" y="347" type="line"/>
      <point x="147" y="19" type="line"/>
      <point x="62" y="19" type="line"/>
    </contour>
    <contour>
      <point x="507.0" y="0.0" type="move" name="bottomright"/>
    </contour>
    <contour>
      <point x="291.0" y="558.0" type="move" name="top"/>
    </contour>
    <contour>
      <point x="507.0" y="600.0" type="move" name="topright"/>
    </contour>
  </outline>
</glyph>
<glyph name="loLing-thai" format="1">
  <advance width="542"/>
  <unicode hex="0E25"/>
  <outline>
    <contour>
      <point x="254" y="-10" type="curve" smooth="yes" name="hr00"/>
      <point x="268" y="-10"/>
      <point x="282" y="-8"/>
      <point x="289" y="-6" type="curve"/>
      <point x="286" y="12" type="line"/>
      <point x="280" y="11"/>
      <point x="271" y="9"/>
      <point x="258" y="9" type="curve" smooth="yes"/>
      <point x="160" y="9"/>
      <point x="105" y="50"/>
      <point x="105" y="128" type="curve" smooth="yes"/>
      <point x="105" y="160" type="line" smooth="yes"/>
      <point x="105" y="235"/>
      <point x="161" y="276"/>
      <point x="257" y="276" type="curve" smooth="yes"/>
      <point x="436" y="276" type="line"/>
      <point x="436" y="0" type="line"/>
      <point x="457" y="0" type="line"/>
      <point x="457" y="366" type="line" smooth="yes"/>
      <point x="457" y="483"/>
      <point x="394" y="548"/>
      <point x="269" y="548" type="curve" smooth="yes"/>
      <point x="159" y="548"/>
      <point x="100" y="503"/>
      <point x="68" y="432" type="curve"/>
      <point x="86" y="424" type="line"/>
      <point x="119" y="497"/>
      <point x="181" y="529"/>
      <point x="269" y="529" type="curve" smooth="yes"/>
      <point x="378" y="529"/>
      <point x="436" y="478"/>
      <point x="436" y="363" type="curve" smooth="yes"/>
      <point x="436" y="295" type="line"/>
      <point x="254" y="295" type="line" smooth="yes"/>
      <point x="146" y="295"/>
      <point x="82" y="239"/>
      <point x="82" y="144" type="curve" smooth="yes"/>
      <point x="82" y="47"/>
      <point x="145" y="-10"/>
    </contour>
    <contour>
      <point x="457.0" y="0.0" type="move" name="bottomright"/>
    </contour>
    <contour>
      <point x="269.0" y="558.0" type="move" name="top"/>
    </contour>
    <contour>
      <point x="457.0" y="600.0" type="move" name="topright"/>
    </contour>
  </outline>
</glyph>
<glyph name="lu-thai" format="1">
  <advance width="589"/>
  <unicode hex="0E26"/>
  <outline>
    <contour>
      <point x="483" y="-180" type="line" name="hr00"/>
      <point x="504" y="-180" type="line"/>
      <point x="504" y="344" type="line" smooth="yes"/>
      <point x="504" y="477"/>
      <point x="429" y="548"/>
      <point x="289" y="548" type="curve" smooth="yes"/>
      <point x="168" y="548"/>
      <point x="80" y="476"/>
      <point x="66" y="377" type="curve"/>
      <point x="147" y="347" type="line"/>
      <point x="147" y="19" type="line"/>
      <point x="62" y="19" type="line"/>
      <point x="62" y="0" type="line"/>
      <point x="139" y="0" type="line" smooth="yes"/>
      <point x="159" y="0"/>
      <point x="168" y="9"/>
      <point x="168" y="29" type="curve" smooth="yes"/>
      <point x="168" y="345" type="line" smooth="yes"/>
      <point x="168" y="355"/>
      <point x="165" y="360"/>
      <point x="156" y="363" type="curve" smooth="yes"/>
      <point x="87" y="388" type="line"/>
      <point x="103" y="465"/>
      <point x="175" y="529"/>
      <point x="289" y="529" type="curve" smooth="yes"/>
      <point x="412" y="529"/>
      <point x="483" y="471"/>
      <point x="483" y="344" type="curve" smooth="yes"/>
    </contour>
    <contour>
      <point x="289.0" y="558.0" type="move" name="top"/>
    </contour>
  </outline>
</glyph>
<glyph name="woWaen-thai" format="1">
  <advance width="533"/>
  <unicode hex="0E27"/>
  <outline>
    <contour>
      <point x="249" y="-12" type="curve" smooth="yes" name="hr00"/>
      <point x="385" y="-12"/>
      <point x="463" y="83"/>
      <point x="463" y="268" type="curve" smooth="yes"/>
      <point x="463" y="452"/>
      <point x="386" y="548"/>
      <point x="248" y="548" type="curve" smooth="yes"/>
      <point x="158" y="548"/>
      <point x="92" y="506"/>
      <point x="57" y="443" type="curve"/>
      <point x="74" y="435" type="line"/>
      <point x="111" y="497"/>
      <point x="166" y="529"/>
      <point x="248" y="529" type="curve" smooth="yes"/>
      <point x="374" y="529"/>
      <point x="440" y="439"/>
      <point x="440" y="299" type="curve" smooth="yes"/>
      <point x="440" y="237" type="line" smooth="yes"/>
      <point x="440" y="97"/>
      <point x="373" y="7"/>
      <point x="248" y="7" type="curve" smooth="yes"/>
      <point x="203" y="7"/>
      <point x="175" y="13"/>
      <point x="145" y="28" type="curve"/>
      <point x="136" y="11" type="line"/>
      <point x="168" y="-6"/>
      <point x="204" y="-12"/>
    </contour>
    <contour>
      <point x="433.0" y="0.0" type="move" name="bottomright"/>
    </contour>
    <contour>
      <point x="263.0" y="558.0" type="move" name="top"/>
    </contour>
    <contour>
      <point x="433.0" y="600.0" type="move" name="topright"/>
    </contour>
  </outline>
</glyph>
<glyph name="soSala-thai" format="1">
  <advance width="606"/>
  <unicode hex="0E28"/>
  <outline>
    <contour>
      <point x="85" y="0" type="line" name="hr00"/>
      <point x="106" y="0" type="line"/>
      <point x="106" y="115" type="line" smooth="yes"/>
      <point x="106" y="208"/>
      <point x="182" y="253"/>
      <point x="264" y="253" type="curve" smooth="yes"/>
      <point x="308" y="253" type="line"/>
      <point x="308" y="272" type="line"/>
      <point x="267" y="272" type="line" smooth="yes"/>
      <point x="174" y="272"/>
      <point x="132" y="232"/>
      <point x="109" y="185" type="curve"/>
      <point x="106" y="185" type="line"/>
      <point x="106" y="344" type="line" smooth="yes"/>
      <point x="106" y="460"/>
      <point x="176" y="529"/>
      <point x="294" y="529" type="curve" smooth="yes"/>
      <point x="412" y="529"/>
      <point x="482" y="460"/>
      <point x="482" y="344" type="curve" smooth="yes"/>
      <point x="482" y="0" type="line"/>
      <point x="503" y="0" type="line"/>
      <point x="503" y="348" type="line" smooth="yes"/>
      <point x="503" y="431"/>
      <point x="466" y="493"/>
      <point x="402" y="525" type="curve"/>
      <point x="402" y="529" type="line"/>
      <point x="601" y="529" type="line"/>
      <point x="601" y="548" type="line"/>
      <point x="402" y="548" type="line" smooth="yes"/>
      <point x="391" y="548"/>
      <point x="386" y="544"/>
      <point x="385" y="532" type="curve"/>
      <point x="358" y="543"/>
      <point x="328" y="548"/>
      <point x="294" y="548" type="curve" smooth="yes"/>
      <point x="165" y="548"/>
      <point x="85" y="470"/>
      <point x="85" y="348" type="curve" smooth="yes"/>
    </contour>
    <contour>
      <point x="503.0" y="0.0" type="move" name="bottomright"/>
    </contour>
    <contour>
      <point x="294.0" y="558.0" type="move" name="top"/>
    </contour>
    <contour>
      <point x="503.0" y="600.0" type="move" name="topright"/>
    </contour>
  </outline>
</glyph>
<glyph name="soRusi-thai" format="1">
  <advance width="606"/>
  <unicode hex="0E29"/>
  <outline>
    <contour>
      <point x="290" y="-12" type="curve" smooth="yes" name="hr00"/>
      <point x="417" y="-12"/>
      <point x="497" y="64"/>
      <point x="497" y="184" type="curve" smooth="yes"/>
      <point x="497" y="255" type="line"/>
      <point x="588" y="255" type="line"/>
      <point x="588" y="272" type="line"/>
      <point x="497" y="272" type="line"/>
      <point x="497" y="536" type="line"/>
      <point x="476" y="536" type="line"/>
      <point x="476" y="272" type="line"/>
      <point x="300" y="272" type="line"/>
      <point x="300" y="356" type="line"/>
      <point x="282" y="356" type="line"/>
      <point x="282" y="275" type="line" smooth="yes"/>
      <point x="282" y="260"/>
      <point x="287" y="255"/>
      <point x="306" y="255" type="curve" smooth="yes"/>
      <point x="476" y="255" type="line"/>
      <point x="476" y="188" type="line" smooth="yes"/>
      <point x="476" y="74"/>
      <point x="407" y="7"/>
      <point x="290" y="7" type="curve" smooth="yes"/>
      <point x="174" y="7"/>
      <point x="106" y="74"/>
      <point x="106" y="188" type="curve" smooth="yes"/>
      <point x="106" y="536" type="line"/>
      <point x="85" y="536" type="line"/>
      <point x="85" y="184" type="line" smooth="yes"/>
      <point x="85" y="64"/>
      <point x="164" y="-12"/>
    </contour>
    <contour>
      <point x="497.0" y="0.0" type="move" name="bottomright"/>
    </contour>
    <contour>
      <point x="291.0" y="558.0" type="move" name="top"/>
    </contour>
    <contour>
      <point x="497.0" y="600.0" type="move" name="topright"/>
    </contour>
  </outline>
</glyph>
<glyph name="soSua-thai" format="1">
  <advance width="560"/>
  <unicode hex="0E2A"/>
  <outline>
    <contour>
      <point x="254" y="-10" type="curve" smooth="yes" name="hr00"/>
      <point x="268" y="-10"/>
      <point x="282" y="-8"/>
      <point x="289" y="-6" type="curve"/>
      <point x="286" y="12" type="line"/>
      <point x="280" y="11"/>
      <point x="271" y="9"/>
      <point x="258" y="9" type="curve" smooth="yes"/>
      <point x="160" y="9"/>
      <point x="105" y="50"/>
      <point x="105" y="128" type="curve" smooth="yes"/>
      <point x="105" y="160" type="line" smooth="yes"/>
      <point x="105" y="235"/>
      <point x="161" y="276"/>
      <point x="257" y="276" type="curve" smooth="yes"/>
      <point x="436" y="276" type="line"/>
      <point x="436" y="0" type="line"/>
      <point x="457" y="0" type="line"/>
      <point x="457" y="366" type="line" smooth="yes"/>
      <point x="457" y="444"/>
      <point x="429" y="498"/>
      <point x="374" y="526" type="curve"/>
      <point x="374" y="529" type="line"/>
      <point x="555" y="529" type="line"/>
      <point x="555" y="548" type="line"/>
      <point x="374" y="548" type="line" smooth="yes"/>
      <point x="363" y="548"/>
      <point x="358" y="544"/>
      <point x="357" y="534" type="curve"/>
      <point x="332" y="543"/>
      <point x="303" y="548"/>
      <point x="269" y="548" type="curve" smooth="yes"/>
      <point x="159" y="548"/>
      <point x="100" y="503"/>
      <point x="68" y="432" type="curve"/>
      <point x="86" y="424" type="line"/>
      <point x="119" y="497"/>
      <point x="181" y="529"/>
      <point x="269" y="529" type="curve" smooth="yes"/>
      <point x="378" y="529"/>
      <point x="436" y="478"/>
      <point x="436" y="363" type="curve" smooth="yes"/>
      <point x="436" y="295" type="line"/>
      <point x="254" y="295" type="line" smooth="yes"/>
      <point x="146" y="295"/>
      <point x="82" y="239"/>
      <point x="82" y="144" type="curve" smooth="yes"/>
      <point x="82" y="47"/>
      <point x="145" y="-10"/>
    </contour>
    <contour>
      <point x="457.0" y="0.0" type="move" name="bottomright"/>
    </contour>
    <contour>
      <point x="269.0" y="558.0" type="move" name="top"/>
    </contour>
    <contour>
      <point x="457.0" y="600.0" type="move" name="topright"/>
    </contour>
  </outline>
</glyph>
<glyph name="loChula-thai" format="1">
  <advance width="613"/>
  <unicode hex="0E2C"/>
  <outline>
    <contour>
      <point x="95" y="0" type="line" name="hr00"/>
      <point x="115" y="0" type="line"/>
      <point x="309" y="232" type="line"/>
      <point x="503" y="0" type="line"/>
      <point x="523" y="0" type="line"/>
      <point x="523" y="441" type="line" smooth="yes"/>
      <point x="523" y="487"/>
      <point x="501" y="516"/>
      <point x="464" y="526" type="curve"/>
      <point x="464" y="528" type="line"/>
      <point x="509" y="535"/>
      <point x="534" y="563"/>
      <point x="534" y="611" type="curve" smooth="yes"/>
      <point x="534" y="670" type="line"/>
      <point x="513" y="670" type="line"/>
      <point x="513" y="615" type="line" smooth="yes"/>
      <point x="513" y="559"/>
      <point x="488" y="536"/>
      <point x="429" y="536" type="curve" smooth="yes"/>
      <point x="355" y="536" type="line"/>
      <point x="355" y="519" type="line"/>
      <point x="420" y="519" type="line" smooth="yes"/>
      <point x="476" y="519"/>
      <point x="502" y="497"/>
      <point x="502" y="437" type="curve" smooth="yes"/>
      <point x="502" y="249" type="line"/>
      <point x="504" y="24" type="line"/>
      <point x="503" y="24" type="line"/>
      <point x="318" y="247" type="line"/>
      <point x="300" y="247" type="line"/>
      <point x="115" y="24" type="line"/>
      <point x="114" y="24" type="line"/>
      <point x="116" y="249" type="line"/>
      <point x="116" y="536" type="line"/>
      <point x="95" y="536" type="line"/>
    </contour>
    <contour>
      <point x="523.0" y="0.0" type="move" name="bottomright"/>
    </contour>
    <contour>
      <point x="276.0" y="558.0" type="move" name="top"/>
    </contour>
  </outline>
</glyph>
<glyph name="paiyannoi-thai" format="1">
  <advance width="472"/>
  <unicode hex="0E2F"/>
  <outline>
    <contour>
      <point x="356" y="0" type="line" name="hr00"/>
      <point x="377" y="0" type="line"/>
      <point x="377" y="536" type="line"/>
      <point x="356" y="536" type="line"/>
      <point x="356" y="472" type="line" smooth="yes"/>
      <point x="356" y="382"/>
      <point x="296" y="339"/>
      <point x="226" y="339" type="curve" smooth="yes"/>
      <point x="194" y="339" type="line" smooth="yes"/>
      <point x="129" y="339"/>
      <point x="71" y="383"/>
      <point x="71" y="473" type="curve" smooth="yes"/>
      <point x="71" y="536" type="line"/>
      <point x="50" y="536" type="line"/>
      <point x="50" y="472" type="line" smooth="yes"/>
      <point x="50" y="367"/>
      <point x="118" y="320"/>
      <point x="210" y="320" type="curve" smooth="yes"/>
      <point x="303" y="320"/>
      <point x="332" y="358"/>
      <point x="353" y="402" type="curve"/>
      <point x="356" y="402" type="line"/>
    </contour>
  </outline>
</glyph>
<glyph name="saraA-thai" format="1">
  <advance width="404"/>
  <unicode hex="0E30"/>
  <outline>
    <contour>
      <point x="114" y="119" type="curve" smooth="yes" name="hr00"/>
      <point x="319" y="119" type="line"/>
      <point x="319" y="138" type="line"/>
      <point x="106" y="138" type="line"/>
      <point x="106" y="204" type="line"/>
      <point x="85" y="204" type="line"/>
      <point x="85" y="148" type="line" smooth="yes"/>
      <point x="85" y="128"/>
      <point x="94" y="119"/>
    </contour>
    <contour>
      <point x="112" y="391" type="curve" smooth="yes"/>
      <point x="319" y="391" type="line"/>
      <point x="319" y="410" type="line"/>
      <point x="106" y="410" type="line"/>
      <point x="106" y="476" type="line"/>
      <point x="85" y="476" type="line"/>
      <point x="85" y="420" type="line" smooth="yes"/>
      <point x="85" y="400"/>
      <point x="92" y="391"/>
    </contour>
  </outline>
</glyph>
<glyph name="maiHanaKat-thai" format="1">
  <advance width="0"/>
  <unicode hex="0E31"/>
  <outline>
    <contour>
      <point x="-78" y="679" type="curve" smooth="yes" name="hr00"/>
      <point x="173" y="679" type="line"/>
      <point x="173" y="698" type="line"/>
      <point x="-87" y="698" type="line"/>
      <point x="-87" y="787" type="line"/>
      <point x="-107" y="787" type="line"/>
      <point x="-107" y="708" type="line" smooth="yes"/>
      <point x="-107" y="688"/>
      <point x="-98" y="679"/>
    </contour>
    <contour>
      <point x="0.0" y="600.0" type="move" name="_topright"/>
    </contour>
    <contour>
      <point x="0.0" y="800.0" type="move" name="topright"/>
    </contour>
  </outline>
</glyph>
<glyph name="saraAa-thai" format="1">
  <advance width="465"/>
  <unicode hex="0E32"/>
  <outline>
    <contour>
      <point x="359" y="0" type="line" name="hr00"/>
      <point x="380" y="0" type="line"/>
      <point x="380" y="382" type="line" smooth="yes"/>
      <point x="380" y="489"/>
      <point x="325" y="548"/>
      <point x="215" y="548" type="curve" smooth="yes"/>
      <point x="121" y="548"/>
      <point x="72" y="507"/>
      <point x="44" y="442" type="curve"/>
      <point x="62" y="434" type="line"/>
      <point x="90" y="500"/>
      <point x="139" y="529"/>
      <point x="215" y="529" type="curve" smooth="yes"/>
      <point x="309" y="529"/>
      <point x="359" y="483"/>
      <point x="359" y="379" type="curve" smooth="yes"/>
    </contour>
    <contour>
      <point x="380.0" y="600.0" type="move" name="topright"/>
    </contour>
  </outline>
</glyph>
<glyph name="saraI-thai" format="1">
  <advance width="0"/>
  <unicode hex="0E34"/>
  <outline>
    <contour>
      <point x="-354" y="679" type="line" name="hr00"/>
      <point x="0" y="679" type="line"/>
      <point x="0" y="698" type="line"/>
      <point x="-354" y="698" type="line"/>
    </contour>
    <contour>
      <point x="0.0" y="600.0" type="move" name="_topright"/>
    </contour>
    <contour>
      <point x="0.0" y="760.0" type="move" name="topright"/>
    </contour>
  </outline>
</glyph>
<glyph name="saraUee-thai" format="1">
  <advance width="0"/>
  <unicode hex="0E37"/>
  <outline>
    <contour>
      <point x="-354" y="679" type="line" name="hr00"/>
      <point x="0" y="679" type="line"/>
      <point x="0" y="787" type="line"/>
      <point x="-20" y="787" type="line"/>
      <point x="-20" y="698" type="line"/>
      <point x="-100" y="698" type="line"/>
      <point x="-100" y="787" type="line"/>
      <point x="-120" y="787" type="line"/>
      <point x="-120" y="698" type="line"/>
      <point x="-354" y="698" type="line"/>
    </contour>
    <contour>
      <point x="0.0" y="600.0" type="move" name="_topright"/>
    </contour>
    <contour>
      <point x="0.0" y="800.0" type="move" name="topright"/>
    </contour>
  </outline>
</glyph>
<glyph name="saraU-thai" format="1">
  <advance width="0"/>
  <unicode hex="0E38"/>
  <outline>
    <contour>
      <point x="-21" y="-332" type="line" name="hr00"/>
      <point x="0" y="-332" type="line"/>
      <point x="0" y="-147" type="line" smooth="yes"/>
      <point x="0" y="-131"/>
      <point x="-8" y="-121"/>
      <point x="-25" y="-121" type="curve" smooth="yes"/>
      <point x="-109" y="-121" type="line"/>
      <point x="-109" y="-140" type="line"/>
      <point x="-21" y="-140" type="line"/>
    </contour>
    <contour>
      <point x="0.0" y="0.0" type="move" name="_bottomright"/>
    </contour>
  </outline>
</glyph>
<glyph name="saraUu-thai" format="1">
  <advance width="0"/>
  <unicode hex="0E39"/>
  <outline>
    <contour>
      <point x="-106" y="-335" type="curve" smooth="yes" name="hr00"/>
      <point x="-39" y="-335"/>
      <point x="0" y="-291"/>
      <point x="0" y="-231" type="curve" smooth="yes"/>
      <point x="0" y="-121" type="line"/>
      <point x="-21" y="-121" type="line"/>
      <point x="-21" y="-227" type="line" smooth="yes"/>
      <point x="-21" y="-284"/>
      <point x="-54" y="-316"/>
      <point x="-106" y="-316" type="curve" smooth="yes"/>
      <point x="-158" y="-316"/>
      <point x="-194" y="-284"/>
      <point x="-194" y="-227" type="curve" smooth="yes"/>
      <point x="-194" y="-147" type="line" smooth="yes"/>
      <point x="-194" y="-131"/>
      <point x="-202" y="-121"/>
      <point x="-219" y="-121" type="curve" smooth="yes"/>
      <point x="-303" y="-121" type="line"/>
      <point x="-303" y="-140" type="line"/>
      <point x="-215" y="-140" type="line"/>
      <point x="-215" y="-231" type="line" smooth="yes"/>
      <point x="-215" y="-291"/>
      <point x="-173" y="-335"/>
    </contour>
    <contour>
      <point x="0.0" y="0.0" type="move" name="_bottomright"/>
    </contour>
  </outline>
</glyph>
<glyph name="phinthu-thai" format="1">
  <advance width="0"/>
  <unicode hex="0E3A"/>
  <outline>
    <contour>
      <point x="-17" y="-165" type="curve" smooth="yes" name="hr00"/>
      <point x="0" y="-165"/>
      <point x="6" y="-155"/>
      <point x="6" y="-144" type="curve" smooth="yes"/>
      <point x="6" y="-137" type="line" smooth="yes"/>
      <point x="6" y="-126"/>
      <point x="0" y="-116"/>
      <point x="-17" y="-116" type="curve" smooth="yes"/>
      <point x="-34" y="-116"/>
      <point x="-40" y="-126"/>
      <point x="-40" y="-137" type="curve" smooth="yes"/>
      <point x="-40" y="-144" type="line" smooth="yes"/>
      <point x="-40" y="-155"/>
      <point x="-34" y="-165"/>
    </contour>
    <contour>
      <point x="0.0" y="0.0" type="move" name="_bottomright"/>
    </contour>
    <contour>
      <point x="0.0" y="-166.0" type="move" name="bottomright"/>
    </contour>
  </outline>
</glyph>
<glyph name="saraAe-thai" format="1">
  <advance width="528"/>
  <unicode hex="0E41"/>
  <outline>
    <component base="saraE-thai"/>
    <component base="saraE-thai" xOffset="218"/>
    <contour>
      <point x="436.0" y="0.0" type="move" name="bottomright"/>
    </contour>
    <contour>
      <point x="376.0" y="600.0" type="move" name="topright"/>
    </contour>
  </outline>
</glyph>
<glyph name="saraO-thai" format="1">
  <advance width="310"/>
  <unicode hex="0E42"/>
  <outline>
    <contour>
      <point x="166" y="0" type="curve" smooth="yes" name="hr00"/>
      <point x="263" y="0" type="line"/>
      <point x="263" y="19" type="line"/>
      <point x="158" y="19" type="line"/>
      <point x="158" y="646" type="line" smooth="yes"/>
      <point x="158" y="656"/>
      <point x="155" y="660"/>
      <point x="146" y="664" type="curve" smooth="yes"/>
      <point x="11" y="719" type="line"/>
      <point x="15" y="797"/>
      <point x="83" y="843"/>
      <point x="166" y="843" type="curve" smooth="yes"/>
      <point x="226" y="843"/>
      <point x="265" y="824"/>
      <point x="294" y="798" type="curve"/>
      <point x="306" y="813" type="line"/>
      <point x="281" y="838"/>
      <point x="236" y="862"/>
      <point x="165" y="862" type="curve" smooth="yes"/>
      <point x="72" y="862"/>
      <point x="-8" y="804"/>
      <point x="-8" y="715" type="curve" smooth="yes"/>
      <point x="-8" y="709" type="line"/>
      <point x="137" y="649" type="line"/>
      <point x="137" y="29" type="line" smooth="yes"/>
      <point x="137" y="9"/>
      <point x="146" y="0"/>
    </contour>
    <contour>
      <point x="218.0" y="0.0" type="move" name="bottomright"/>
    </contour>
  </outline>
</glyph>
<glyph name="saraAiMaimuan-thai" format="1">
  <advance width="310"/>
  <unicode hex="0E43"/>
  <outline>
    <contour>
      <point x="166" y="0" type="curve" smooth="yes" name="hr00"/>
      <point x="263" y="0" type="line"/>
      <point x="263" y="19" type="line"/>
      <point x="158" y="19" type="line"/>
      <point x="158" y="540" type="line" smooth="yes"/>
      <point x="158" y="587"/>
      <point x="189" y="613"/>
      <point x="219" y="642" type="curve" smooth="yes"/>
      <point x="247" y="669"/>
      <point x="274" y="699"/>
      <point x="274" y="752" type="curve" smooth="yes"/>
      <point x="274" y="825"/>
      <point x="222" y="862"/>
      <point x="151" y="862" type="curve" smooth="yes"/>
      <point x="75" y="862"/>
      <point x="32" y="820"/>
      <point x="12" y="760" type="curve"/>
      <point x="29" y="751" type="line"/>
      <point x="44" y="806"/>
      <point x="84" y="843"/>
      <point x="151" y="843" type="curve" smooth="yes"/>
      <point x="207" y="843"/>
      <point x="253" y="814"/>
      <point x="253" y="752" type="curve" smooth="yes"/>
      <point x="253" y="708"/>
      <point x="232" y="681"/>
      <point x="208" y="657" type="curve" smooth="yes"/>
      <point x="175" y="625"/>
      <point x="137" y="597"/>
      <point x="137" y="538" type="curve" smooth="yes"/>
      <point x="137" y="29" type="line" smooth="yes"/>
      <point x="137" y="9"/>
      <point x="146" y="0"/>
    </contour>
  </outline>
</glyph>
<glyph name="maiEk-thai" format="1">
  <advance width="0"/>
  <unicode hex="0E48"/>
  <outline>
    <contour>
      <point x="-20" y="678" type="line" name="hr00"/>
      <point x="0" y="678" type="line"/>
      <point x="0" y="826" type="line"/>
      <point x="-20" y="826" type="line"/>
    </contour>
    <contour>
      <point x="0.0" y="600.0" type="move" name="_topright"/>
    </contour>
    <contour>
      <point x="0.0" y="838.0" type="move" name="topright"/>
    </contour>
  </outline>
</glyph>
<glyph name="maiTri-thai" format="1">
  <advance width="0"/>
  <unicode hex="0E4A"/>
  <outline>
    <contour>
      <point x="-283" y="679" type="line" name="hr00"/>
      <point x="-263" y="679" type="line"/>
      <point x="-263" y="739" type="line" smooth="yes"/>
      <point x="-263" y="775"/>
      <point x="-242" y="795"/>
      <point x="-209" y="795" type="curve" smooth="yes"/>
      <point x="-171" y="795"/>
      <point x="-151" y="774"/>
      <point x="-151" y="735" type="curve" smooth="yes"/>
      <point x="-151" y="716" type="line"/>
      <point x="-132" y="716" type="line"/>
      <point x="-132" y="735" type="line" smooth="yes"/>
      <point x="-132" y="774"/>
      <point x="-112" y="795"/>
      <point x="-74" y="795" type="curve" smooth="yes"/>
      <point x="-41" y="795"/>
      <point x="-20" y="775"/>
      <point x="-20" y="739" type="curve" smooth="yes"/>
      <point x="-20" y="681" type="line"/>
      <point x="105" y="681" type="line"/>
      <point x="105" y="698" type="line"/>
      <point x="0" y="698" type="line"/>
      <point x="0" y="741" type="line" smooth="yes"/>
      <point x="0" y="787"/>
      <point x="-30" y="812"/>
      <point x="-72" y="812" type="curve" smooth="yes"/>
      <point x="-110" y="812"/>
      <point x="-133" y="793"/>
      <point x="-140" y="761" type="curve"/>
      <point x="-143" y="761" type="line"/>
      <point x="-150" y="793"/>
      <point x="-173" y="812"/>
      <point x="-211" y="812" type="curve" smooth="yes"/>
      <point x="-253" y="812"/>
      <point x="-283" y="787"/>
      <point x="-283" y="741" type="curve" smooth="yes"/>
    </contour>
    <contour>
      <point x="0.0" y="600.0" type="move" name="_topright"/>
    </contour>
    <contour>
      <point x="0.0" y="800.0" type="move" name="topright"/>
    </contour>
  </outline>
</glyph>
<glyph name="thanthakhat-thai" format="1">
  <advance width="0"/>
  <unicode hex="0E4C"/>
  <outline>
    <contour>
      <point x="-41" y="678" type="line" name="hr00"/>
      <point x="-21" y="678" type="line"/>
      <point x="-21" y="768" type="line"/>
      <point x="189" y="768" type="line"/>
      <point x="189" y="787" type="line"/>
      <point x="-12" y="787" type="line" smooth="yes"/>
      <point x="-32" y="787"/>
      <point x="-41" y="778"/>
      <point x="-41" y="758" type="curve" smooth="yes"/>
    </contour>
    <contour>
      <point x="0.0" y="600.0" type="move" name="_topright"/>
    </contour>
  </outline>
</glyph>
<glyph name="yamakkan-thai" format="1">
  <advance width="0"/>
  <unicode hex="0E4E"/>
  <outline>
    <contour>
      <point x="-47" y="660" type="curve" smooth="yes" name="hr00"/>
      <point x="0" y="660" type="line"/>
      <point x="0" y="678" type="line"/>
      <point x="-37" y="678" type="line" smooth="yes"/>
      <point x="-82" y="678"/>
      <point x="-102" y="695"/>
      <point x="-102" y="725" type="curve" smooth="yes"/>
      <point x="-102" y="761"/>
      <point x="-78" y="783"/>
      <point x="-27" y="783" type="curve" smooth="yes"/>
      <point x="22" y="783" type="line"/>
      <point x="22" y="800" type="line"/>
      <point x="-3" y="800" type="line" smooth="yes"/>
      <point x="-45" y="800"/>
      <point x="-71" y="817"/>
      <point x="-71" y="856" type="curve" smooth="yes"/>
      <point x="-71" y="882"/>
      <point x="-50" y="902"/>
      <point x="-12" y="902" type="curve" smooth="yes"/>
      <point x="4" y="902"/>
      <point x="26" y="896"/>
      <point x="39" y="888" type="curve"/>
      <point x="48" y="903" type="line"/>
      <point x="32" y="913"/>
      <point x="13" y="920"/>
      <point x="-14" y="920" type="curve" smooth="yes"/>
      <point x="-62" y="920"/>
      <point x="-90" y="895"/>
      <point x="-90" y="856" type="curve" smooth="yes"/>
      <point x="-90" y="824"/>
      <point x="-68" y="803"/>
      <point x="-38" y="795" type="curve"/>
      <point x="-38" y="793" type="line"/>
      <point x="-92" y="793"/>
      <point x="-121" y="759"/>
      <point x="-121" y="725" type="curve" smooth="yes"/>
      <point x="-121" y="682"/>
      <point x="-94" y="660"/>
    </contour>
    <contour>
      <point x="0.0" y="600.0" type="move" name="_topright"/>
    </contour>
  </outline>
</glyph>
<glyph name="fongman-thai" format="1">
  <advance width="648"/>
  <unicode hex="0E4F"/>
  <outline>
    <contour>
      <point x="324" y="222" type="curve" smooth="yes" name="hr00"/>
      <point x="357" y="222"/>
      <point x="368" y="241"/>
      <point x="368" y="262" type="curve" smooth="yes"/>
      <point x="368" y="274" type="line" smooth="yes"/>
      <point x="368" y="295"/>
      <point x="357" y="314"/>
      <point x="324" y="314" type="curve" smooth="yes"/>
      <point x="291" y="314"/>
      <point x="280" y="295"/>
      <point x="280" y="274" type="curve" smooth="yes"/>
      <point x="280" y="262" type="line" smooth="yes"/>
      <point x="280" y="241"/>
      <point x="291" y="222"/>
    </contour>
    <contour>
      <point x="324" y="7" type="curve" smooth="yes"/>
      <point x="182" y="7"/>
      <point x="103" y="98"/>
      <point x="103" y="241" type="curve" smooth="yes"/>
      <point x="103" y="295" type="line" smooth="yes"/>
      <point x="103" y="438"/>
      <point x="182" y="529"/>
      <point x="324" y="529" type="curve" smooth="yes"/>
      <point x="466" y="529"/>
      <point x="545" y="438"/>
      <point x="545" y="295" type="curve" smooth="yes"/>
      <point x="545" y="241" type="line" smooth="yes"/>
      <point x="545" y="98"/>
      <point x="466" y="7"/>
    </contour>
    <contour>
      <point x="324" y="-12" type="curve" smooth="yes"/>
      <point x="477" y="-12"/>
      <point x="568" y="84"/>
      <point x="568" y="268" type="curve" smooth="yes"/>
      <point x="568" y="452"/>
      <point x="477" y="548"/>
      <point x="324" y="548" type="curve" smooth="yes"/>
      <point x="171" y="548"/>
      <point x="80" y="452"/>
      <point x="80" y="268" type="curve" smooth="yes"/>
      <point x="80" y="84"/>
      <point x="171" y="-12"/>
    </contour>
  </outline>
</glyph>
<glyph name="one-thai" format="1">
  <advance width="551"/>
  <unicode hex="0E51"/>
  <outline>
    <contour>
      <point x="182" y="-8" type="line" name="hr00"/>
      <point x="322" y="-9"/>
      <point x="475" y="59"/>
      <point x="475" y="262" type="curve" smooth="yes"/>
      <point x="475" y="427"/>
      <point x="397" y="500"/>
      <point x="263" y="500" type="curve" smooth="yes"/>
      <point x="145" y="500"/>
      <point x="72" y="423"/>
      <point x="72" y="323" type="curve" smooth="yes"/>
      <point x="72" y="229"/>
      <point x="133" y="172"/>
      <point x="233" y="172" type="curve" smooth="yes"/>
      <point x="253" y="172"/>
      <point x="271" y="174"/>
      <point x="284" y="176" type="curve"/>
      <point x="282" y="194" type="line"/>
      <point x="268" y="192"/>
      <point x="251" y="191"/>
      <point x="232" y="191" type="curve" smooth="yes"/>
      <point x="145" y="191"/>
      <point x="95" y="248"/>
      <point x="95" y="314" type="curve" smooth="yes"/>
      <point x="95" y="331" type="line" smooth="yes"/>
      <point x="95" y="404"/>
      <point x="151" y="481"/>
      <point x="263" y="481" type="curve" smooth="yes"/>
      <point x="385" y="481"/>
      <point x="452" y="409"/>
      <point x="452" y="277" type="curve" smooth="yes"/>
      <point x="452" y="256" type="line" smooth="yes"/>
      <point x="452" y="71"/>
      <point x="314" y="11"/>
      <point x="182" y="11" type="curve"/>
    </contour>
  </outline>
</glyph>
<glyph name="four-thai" format="1">
  <advance width="551"/>
  <unicode hex="0E54"/>
  <outline>
    <contour>
      <point x="288" y="0" type="curve" smooth="yes" name="hr00"/>
      <point x="512" y="0" type="line"/>
      <point x="512" y="19" type="line"/>
      <point x="511" y="19" type="line" smooth="yes"/>
      <point x="397" y="19"/>
      <point x="341" y="101"/>
      <point x="341" y="188" type="curve" smooth="yes"/>
      <point x="341" y="230" type="line"/>
      <point x="473" y="230" type="line"/>
      <point x="473" y="249" type="line"/>
      <point x="347" y="249" type="line" smooth="yes"/>
      <point x="327" y="249"/>
      <point x="321" y="241"/>
      <point x="321" y="226" type="curve" smooth="yes"/>
      <point x="321" y="191" type="line" smooth="yes"/>
      <point x="321" y="92"/>
      <point x="372" y="36"/>
      <point x="432" y="22" type="curve"/>
      <point x="432" y="19" type="line"/>
      <point x="288" y="19" type="line" smooth="yes"/>
      <point x="172" y="19"/>
      <point x="99" y="84"/>
      <point x="99" y="203" type="curve" smooth="yes"/>
      <point x="99" y="244" type="line" smooth="yes"/>
      <point x="99" y="331"/>
      <point x="146" y="396"/>
      <point x="251" y="422" type="curve" smooth="yes"/>
      <point x="415" y="463" type="line" smooth="yes"/>
      <point x="456" y="473"/>
      <point x="466" y="488"/>
      <point x="469" y="513" type="curve" smooth="yes"/>
      <point x="477" y="569" type="line"/>
      <point x="455" y="569" type="line"/>
      <point x="448" y="513" type="line" smooth="yes"/>
      <point x="446" y="496"/>
      <point x="436" y="488"/>
      <point x="415" y="482" type="curve"/>
      <point x="251" y="442" type="line" smooth="yes"/>
      <point x="136" y="414"/>
      <point x="76" y="356"/>
      <point x="76" y="223" type="curve" smooth="yes"/>
      <point x="76" y="65"/>
      <point x="159" y="0"/>
    </contour>
  </outline>
</glyph>
<glyph name="eight-thai" format="1">
  <advance width="591"/>
  <unicode hex="0E58"/>
  <outline>
    <contour>
      <point x="196" y="-12" type="curve" smooth="yes" name="hr00"/>
      <point x="268" y="-12"/>
      <point x="290" y="38"/>
      <point x="294" y="88" type="curve"/>
      <point x="296" y="88" type="line"/>
      <point x="301" y="38"/>
      <point x="331" y="-12"/>
      <point x="410" y="-12" type="curve" smooth="yes"/>
      <point x="480" y="-12"/>
      <point x="526" y="37"/>
      <point x="526" y="142" type="curve" smooth="yes"/>
      <point x="526" y="236"/>
      <point x="480" y="275"/>
      <point x="425" y="275" type="curve" smooth="yes"/>
      <point x="411" y="275"/>
      <point x="399" y="273"/>
      <point x="388" y="271" type="curve"/>
      <point x="390" y="252" type="line"/>
      <point x="401" y="254"/>
      <point x="414" y="256"/>
      <point x="425" y="256" type="curve" smooth="yes"/>
      <point x="467" y="256"/>
      <point x="503" y="225"/>
      <point x="503" y="161" type="curve" smooth="yes"/>
      <point x="503" y="123" type="line" smooth="yes"/>
      <point x="503" y="51"/>
      <point x="471" y="7"/>
      <point x="411" y="7" type="curve" smooth="yes"/>
      <point x="338" y="7"/>
      <point x="304" y="64"/>
      <point x="304" y="135" type="curve" smooth="yes"/>
      <point x="304" y="177" type="line"/>
      <point x="285" y="177" type="line"/>
      <point x="285" y="135" type="line" smooth="yes"/>
      <point x="285" y="64"/>
      <point x="264" y="7"/>
      <point x="197" y="7" type="curve" smooth="yes"/>
      <point x="133" y="7"/>
      <point x="98" y="53"/>
      <point x="98" y="181" type="curve" smooth="yes"/>
      <point x="98" y="222" type="line" smooth="yes"/>
      <point x="98" y="327"/>
      <point x="145" y="399"/>
      <point x="250" y="422" type="curve" smooth="yes"/>
      <point x="440" y="463" type="line" smooth="yes"/>
      <point x="480" y="472"/>
      <point x="489" y="484"/>
      <point x="494" y="513" type="curve" smooth="yes"/>
      <point x="502" y="569" type="line"/>
      <point x="480" y="569" type="line"/>
      <point x="473" y="513" type="line" smooth="yes"/>
      <point x="471" y="496"/>
      <point x="461" y="487"/>
      <point x="440" y="482" type="curve" smooth="yes"/>
      <point x="250" y="442" type="line" smooth="yes"/>
      <point x="135" y="418"/>
      <point x="75" y="352"/>
      <point x="75" y="201" type="curve" smooth="yes"/>
      <point x="75" y="34"/>
      <point x="120" y="-12"/>
    </contour>
  </outline>
</glyph>
<glyph name="nine-thai" format="1">
  <advance width="630"/>
  <unicode hex="0E59"/>
  <outline>
    <contour>
      <point x="249" y="-12" type="curve" smooth="yes" name="hr00"/>
      <point x="262" y="-12"/>
      <point x="275" y="-12"/>
      <point x="288" y="-10" type="curve"/>
      <point x="286" y="9" type="line"/>
      <point x="270" y="7"/>
      <point x="260" y="7"/>
      <point x="250" y="7" type="curve" smooth="yes"/>
      <point x="148" y="7"/>
      <point x="103" y="105"/>
      <point x="103" y="222" type="curve" smooth="yes"/>
      <point x="103" y="289" type="line" smooth="yes"/>
      <point x="103" y="418"/>
      <point x="145" y="481"/>
      <point x="220" y="481" type="curve" smooth="yes"/>
      <point x="292" y="481"/>
      <point x="323" y="430"/>
      <point x="344" y="362" type="curve" smooth="yes"/>
      <point x="456" y="0" type="line"/>
      <point x="480" y="0" type="line"/>
      <point x="387" y="296" type="line" smooth="yes"/>
      <point x="377" y="329"/>
      <point x="372" y="357"/>
      <point x="372" y="380" type="curve" smooth="yes"/>
      <point x="372" y="453"/>
      <point x="416" y="481"/>
      <point x="458" y="481" type="curve" smooth="yes"/>
      <point x="519" y="481"/>
      <point x="559" y="428"/>
      <point x="559" y="330" type="curve"/>
      <point x="578" y="331" type="line"/>
      <point x="619" y="569" type="line"/>
      <point x="597" y="569" type="line"/>
      <point x="566" y="366" type="line"/>
      <point x="564" y="366" type="line"/>
      <point x="565" y="439"/>
      <point x="528" y="500"/>
      <point x="458" y="500" type="curve" smooth="yes"/>
      <point x="397" y="500"/>
      <point x="357" y="453"/>
      <point x="357" y="391" type="curve" smooth="yes"/>
      <point x="357" y="385"/>
      <point x="357" y="379"/>
      <point x="358" y="373" type="curve"/>
      <point x="355" y="373" type="line"/>
      <point x="340" y="436"/>
      <point x="299" y="500"/>
      <point x="221" y="500" type="curve" smooth="yes"/>
      <point x="131" y="500"/>
      <point x="80" y="427"/>
      <point x="80" y="256" type="curve" smooth="yes"/>
      <point x="80" y="85"/>
      <point x="140" y="-12"/>
    </contour>
  </outline>
</glyph>
<glyph name="lira" format="1">
  <advance width="579"/>
  <unicode hex="20A4"/>
  <outline>
    <contour>
      <point x="513" y="20" type="line" name="hr00"/>
      <point x="107" y="20" type="line"/>
      <point x="107" y="22" type="line"/>
      <point x="168" y="69"/>
      <point x="201" y="142"/>
      <point x="201" y="222" type="curve" smooth="yes"/>
      <point x="201" y="232"/>
      <point x="200" y="242"/>
      <point x="200" y="251" type="curve"/>
      <point x="419" y="251" type="line"/>
      <point x="419" y="270" type="line"/>
      <point x="197" y="270" type="line"/>
      <point x="189" y="320"/>
      <point x="169" y="363"/>
      <point x="153" y="408" type="curve"/>
      <point x="419" y="408" type="line"/>
      <point x="419" y="427" type="line"/>
      <point x="147" y="427" type="line"/>
      <point x="139" y="453"/>
      <point x="134" y="480"/>
      <point x="134" y="510" type="curve" smooth="yes"/>
      <point x="134" y="623"/>
      <point x="210" y="690"/>
      <point x="320" y="690" type="curve" smooth="yes"/>
      <point x="396" y="690"/>
      <point x="456" y="657"/>
      <point x="500" y="582" type="curve"/>
      <point x="519" y="592" type="line"/>
      <point x="473" y="671"/>
      <point x="404" y="710"/>
      <point x="319" y="710" type="curve" smooth="yes"/>
      <point x="200" y="710"/>
      <point x="112" y="635"/>
      <point x="112" y="510" type="curve" smooth="yes"/>
      <point x="112" y="479"/>
      <point x="117" y="453"/>
      <point x="124" y="427" type="curve"/>
      <point x="68" y="427" type="line"/>
      <point x="68" y="408" type="line"/>
      <point x="130" y="408" type="line"/>
      <point x="146" y="362"/>
      <point x="166" y="321"/>
      <point x="175" y="270" type="curve"/>
      <point x="68" y="270" type="line"/>
      <point x="68" y="251" type="line"/>
      <point x="177" y="251" type="line"/>
      <point x="178" y="241"/>
      <point x="179" y="231"/>
      <point x="179" y="221" type="curve" smooth="yes"/>
      <point x="179" y="135"/>
      <point x="139" y="67"/>
      <point x="83" y="25" type="curve"/>
      <point x="83" y="0" type="line"/>
      <point x="513" y="0" type="line"/>
    </contour>
  </outline>
</glyph>
<glyph name="u2638" format="1">
  <advance width="870"/>
  <unicode hex="2638"/>
  <outline>
    <contour>
      <point x="426" y="-39" type="line" name="hr00"/>
      <point x="444" y="-39" type="line"/>
      <point x="444" y="20" type="line"/>
      <point x="530" y="22"/>
      <point x="604" y="50"/>
      <point x="659" y="100" type="curve"/>
      <point x="701" y="57" type="line"/>
      <point x="714" y="71" type="line"/>
      <point x="672" y="113" type="line"/>
      <point x="724" y="166"/>
      <point x="755" y="239"/>
      <point x="757" y="326" type="curve"/>
      <point x="820" y="326" type="line"/>
      <point x="820" y="346" type="line"/>
      <point x="757" y="346" type="line"/>
      <point x="755" y="433"/>
      <point x="724" y="506"/>
      <point x="672" y="559" type="curve"/>
      <point x="714" y="601" type="line"/>
      <point x="701" y="615" type="line"/>
      <point x="659" y="572" type="line"/>
      <point x="604" y="622"/>
      <point x="530" y="650"/>
      <point x="444" y="652" type="curve"/>
      <point x="444" y="711" type="line"/>
      <point x="426" y="711" type="line"/>
      <point x="426" y="652" type="line"/>
      <point x="340" y="650"/>
      <point x="266" y="622"/>
      <point x="211" y="572" type="curve"/>
      <point x="169" y="615" type="line"/>
      <point x="156" y="601" type="line"/>
      <point x="198" y="559" type="line"/>
      <point x="146" y="506"/>
      <point x="115" y="433"/>
      <point x="113" y="346" type="curve"/>
      <point x="50" y="346" type="line"/>
      <point x="50" y="326" type="line"/>
      <point x="113" y="326" type="line"/>
      <point x="115" y="239"/>
      <point x="146" y="166"/>
      <point x="198" y="113" type="curve"/>
      <point x="156" y="71" type="line"/>
      <point x="169" y="57" type="line"/>
      <point x="211" y="100" type="line"/>
      <point x="266" y="50"/>
      <point x="340" y="22"/>
      <point x="426" y="20" type="curve"/>
    </contour>
    <contour>
      <point x="213" y="127" type="line"/>
      <point x="165" y="177"/>
      <point x="136" y="245"/>
      <point x="134" y="326" type="curve"/>
      <point x="335" y="327" type="line"/>
      <point x="337" y="304"/>
      <point x="345" y="285"/>
      <point x="357" y="270" type="curve"/>
    </contour>
    <contour>
      <point x="335" y="345" type="curve"/>
      <point x="134" y="346" type="line"/>
      <point x="136" y="427"/>
      <point x="165" y="495"/>
      <point x="213" y="545" type="curve"/>
      <point x="357" y="402" type="line"/>
      <point x="345" y="387"/>
      <point x="337" y="368"/>
    </contour>
    <contour>
      <point x="426" y="39" type="line"/>
      <point x="346" y="41"/>
      <point x="277" y="68"/>
      <point x="226" y="114" type="curve"/>
      <point x="369" y="258" type="line"/>
      <point x="384" y="245"/>
      <point x="404" y="238"/>
      <point x="427" y="236" type="curve"/>
    </contour>
    <contour>
      <point x="369" y="414" type="curve"/>
      <point x="226" y="558" type="line"/>
      <point x="277" y="604"/>
      <point x="346" y="631"/>
      <point x="426" y="633" type="curve"/>
      <point x="427" y="436" type="line"/>
      <point x="404" y="434"/>
      <point x="384" y="427"/>
    </contour>
    <contour>
      <point x="435" y="255" type="curve" smooth="yes"/>
      <point x="389" y="255"/>
      <point x="356" y="287"/>
      <point x="356" y="336" type="curve" smooth="yes"/>
      <point x="356" y="385"/>
      <point x="389" y="417"/>
      <point x="435" y="417" type="curve" smooth="yes"/>
      <point x="481" y="417"/>
      <point x="514" y="385"/>
      <point x="514" y="336" type="curve" smooth="yes"/>
      <point x="514" y="287"/>
      <point x="481" y="255"/>
    </contour>
    <contour>
      <point x="444" y="39" type="curve"/>
      <point x="443" y="236" type="line"/>
      <point x="466" y="238"/>
      <point x="486" y="245"/>
      <point x="501" y="258" type="curve"/>
      <point x="644" y="114" type="line"/>
      <point x="593" y="68"/>
      <point x="524" y="41"/>
    </contour>
    <contour>
      <point x="501" y="414" type="line"/>
      <point x="486" y="427"/>
      <point x="466" y="434"/>
      <point x="443" y="436" type="curve"/>
      <point x="444" y="633" type="line"/>
      <point x="524" y="631"/>
      <point x="593" y="604"/>
      <point x="644" y="558" type="curve"/>
    </contour>
    <contour>
      <point x="657" y="127" type="curve"/>
      <point x="513" y="270" type="line"/>
      <point x="525" y="285"/>
      <point x="533" y="304"/>
      <point x="535" y="327" type="curve"/>
      <point x="736" y="326" type="line"/>
      <point x="734" y="245"/>
      <point x="705" y="177"/>
    </contour>
    <contour>
      <point x="535" y="345" type="line"/>
      <point x="533" y="368"/>
      <point x="525" y="387"/>
      <point x="513" y="402" type="curve"/>
      <point x="657" y="545" type="line"/>
      <point x="705" y="495"/>
      <point x="734" y="427"/>
      <point x="736" y="346" type="curve"/>
    </contour>
  </outline>
</glyph>
<glyph name="reversedKhomut-thai" format="1">
  <advance width="1401"/>
  <unicode hex="EC00"/>
  <outline>
    <contour>
      <point x="1093" y="-12" type="curve" smooth="yes" name="hr00"/>
      <point x="1234" y="-12"/>
      <point x="1321" y="83"/>
      <point x="1321" y="268" type="curve" smooth="yes"/>
      <point x="1321" y="453"/>
      <point x="1232" y="548"/>
      <point x="1095" y="548" type="curve" smooth="yes"/>
      <point x="1021" y="548"/>
      <point x="981" y="527"/>
      <point x="950" y="504" type="curve"/>
      <point x="961" y="488" type="line"/>
      <point x="997" y="516"/>
      <point x="1032" y="529"/>
      <point x="1094" y="529" type="curve" smooth="yes"/>
      <point x="1212" y="529"/>
      <point x="1298" y="446"/>
      <point x="1298" y="300" type="curve" smooth="yes"/>
      <point x="1298" y="238" type="line" smooth="yes"/>
      <point x="1298" y="92"/>
      <point x="1214" y="7"/>
      <point x="1093" y="7" type="curve" smooth="yes"/>
      <point x="920" y="7"/>
      <point x="837" y="157"/>
      <point x="799" y="479" type="curve"/>
      <point x="770" y="479" type="line"/>
      <point x="651" y="106" type="line"/>
      <point x="649" y="106" type="line"/>
      <point x="542" y="443" type="line"/>
      <point x="516" y="443" type="line"/>
      <point x="419" y="138" type="line"/>
      <point x="417" y="138" type="line"/>
      <point x="327" y="421" type="line"/>
      <point x="302" y="421" type="line"/>
      <point x="266" y="301"/>
      <point x="225" y="257"/>
      <point x="143" y="257" type="curve" smooth="yes"/>
      <point x="80" y="257" type="line"/>
      <point x="80" y="238" type="line"/>
      <point x="143" y="238" type="line" smooth="yes"/>
      <point x="230" y="238"/>
      <point x="275" y="284"/>
      <point x="313" y="392" type="curve"/>
      <point x="315" y="392" type="line"/>
      <point x="405" y="108" type="line"/>
      <point x="431" y="108" type="line"/>
      <point x="528" y="413" type="line"/>
      <point x="530" y="413" type="line"/>
      <point x="637" y="76" type="line"/>
      <point x="663" y="76" type="line"/>
      <point x="782" y="449" type="line"/>
      <point x="784" y="449" type="line"/>
      <point x="821" y="149"/>
      <point x="912" y="-12"/>
    </contour>
  </outline>
</glyph>
<glyph name="angkhankhu_wisanchani-thai" format="1">
  <advance width="670"/>
  <unicode hex="EC03"/>
  <outline>
    <contour>
      <point x="356" y="0" type="line" name="hr00"/>
      <point x="377" y="0" type="line"/>
      <point x="377" y="192" type="line"/>
      <point x="540" y="192" type="line"/>
      <point x="540" y="0" type="line"/>
      <point x="561" y="0" type="line"/>
      <point x="561" y="192" type="line"/>
      <point x="652" y="192" type="line"/>
      <point x="652" y="209" type="line"/>
      <point x="561" y="209" type="line"/>
      <point x="561" y="536" type="line"/>
      <point x="540" y="536" type="line"/>
      <point x="540" y="209" type="line"/>
      <point x="377" y="209" type="line"/>
      <point x="377" y="536" type="line"/>
      <point x="356" y="536" type="line"/>
      <point x="356" y="495" type="line" smooth="yes"/>
      <point x="356" y="425"/>
      <point x="285" y="389"/>
      <point x="226" y="389" type="curve" smooth="yes"/>
      <point x="194" y="389" type="line" smooth="yes"/>
      <point x="130" y="389"/>
      <point x="71" y="423"/>
      <point x="71" y="496" type="curve" smooth="yes"/>
      <point x="71" y="536" type="line"/>
      <point x="50" y="536" type="line"/>
      <point x="50" y="495" type="line" smooth="yes"/>
      <point x="50" y="408"/>
      <point x="119" y="370"/>
      <point x="210" y="370" type="curve" smooth="yes"/>
      <point x="287" y="370"/>
      <point x="333" y="405"/>
      <point x="353" y="443" type="curve"/>
      <point x="356" y="443" type="line"/>
      <point x="356" y="209" type="line"/>
      <point x="193" y="209" type="line"/>
      <point x="193" y="288" type="line"/>
      <point x="175" y="288" type="line"/>
      <point x="175" y="212" type="line" smooth="yes"/>
      <point x="175" y="197"/>
      <point x="180" y="192"/>
      <point x="199" y="192" type="curve" smooth="yes"/>
      <point x="356" y="192" type="line"/>
    </contour>
  </outline>
</glyph>
<glyph name="fonthong-thai" format="1">
  <advance width="0"/>
  <unicode hex="EC07"/>
  <outline>
    <contour>
      <point x="-50" y="678" type="line" name="hr00"/>
      <point x="-30" y="678" type="line"/>
      <point x="-30" y="826" type="line"/>
      <point x="-50" y="826" type="line"/>
    </contour>
    <contour>
      <point x="-40.0" y="558.0" type="move" name="_top"/>
    </contour>
    <contour>
      <point x="-30.0" y="838.0" type="move" name="topright"/>
    </contour>
  </outline>
</glyph>
<glyph name="unalome-thai" format="1">
  <advance width="767"/>
  <unicode hex="EC0B"/>
  <outline>
    <contour>
      <point x="383" y="-12" type="curve" smooth="yes" name="hr00"/>
      <point x="576" y="-12"/>
      <point x="681" y="61"/>
      <point x="681" y="214" type="curve" smooth="yes"/>
      <point x="681" y="288"/>
      <point x="654" y="328"/>
      <point x="615" y="358" type="curve"/>
      <point x="601" y="342" type="line"/>
      <point x="639" y="316"/>
      <point x="658" y="277"/>
      <point x="658" y="224" type="curve" smooth="yes"/>
      <point x="658" y="204" type="line" smooth="yes"/>
      <point x="658" y="70"/>
      <point x="567" y="7"/>
      <point x="383" y="7" type="curve" smooth="yes"/>
      <point x="204" y="7"/>
      <point x="109" y="65"/>
      <point x="109" y="203" type="curve" smooth="yes"/>
      <point x="109" y="259" type="line" smooth="yes"/>
      <point x="109" y="410"/>
      <point x="295" y="477"/>
      <point x="591" y="490" type="curve"/>
      <point x="591" y="517" type="line"/>
      <point x="209" y="627" type="line"/>
      <point x="209" y="629" type="line"/>
      <point x="548" y="727" type="line"/>
      <point x="548" y="751" type="line"/>
      <point x="262" y="833" type="line"/>
      <point x="262" y="835" type="line"/>
      <point x="371" y="866"/>
      <point x="416" y="903"/>
      <point x="416" y="986" type="curve" smooth="yes"/>
      <point x="416" y="1067" type="line"/>
      <point x="397" y="1067" type="line"/>
      <point x="397" y="988" type="line" smooth="yes"/>
      <point x="397" y="905"/>
      <point x="348" y="871"/>
      <point x="237" y="845" type="curve"/>
      <point x="237" y="822" type="line"/>
      <point x="523" y="740" type="line"/>
      <point x="523" y="738" type="line"/>
      <point x="184" y="640" type="line"/>
      <point x="184" y="616" type="line"/>
      <point x="562" y="507" type="line"/>
      <point x="562" y="505" type="line"/>
      <point x="171" y="477"/>
      <point x="86" y="378"/>
      <point x="86" y="231" type="curve" smooth="yes"/>
      <point x="86" y="45"/>
      <point x="194" y="-12"/>
    </contour>
  </outline>
</glyph>
<glyph name="danda-thai" format="1">
  <advance width="211"/>
  <unicode hex="EC11"/>
  <outline>
    <contour>
      <point x="95" y="0" type="line" name="hr00"/>
      <point x="116" y="0" type="line"/>
      <point x="116" y="536" type="line"/>
      <point x="95" y="536" type="line"/>
    </contour>
  </outline>
</glyph>
<glyph name="five-thai.sups" format="1">
  <advance width="393"/>
  <outline>
    <contour>
      <point x="206" y="359" type="curve" smooth="yes" name="hr00"/>
      <point x="364" y="359" type="line"/>
      <point x="364" y="377" type="line"/>
      <point x="363" y="377" type="line" smooth="yes"/>
      <point x="287" y="377"/>
      <point x="248" y="433"/>
      <point x="248" y="491" type="curve" smooth="yes"/>
      <point x="248" y="520" type="line"/>
      <point x="338" y="520" type="line"/>
      <point x="338" y="538" type="line"/>
      <point x="253" y="538" type="line" smooth="yes"/>
      <point x="233" y="538"/>
      <point x="228" y="528"/>
      <point x="228" y="518" type="curve" smooth="yes"/>
      <point x="228" y="495" type="line" smooth="yes"/>
      <point x="228" y="424"/>
      <point x="268" y="388"/>
      <point x="307" y="379" type="curve"/>
      <point x="307" y="377" type="line"/>
      <point x="206" y="377" type="line" smooth="yes"/>
      <point x="125" y="377"/>
      <point x="75" y="422"/>
      <point x="75" y="502" type="curve" smooth="yes"/>
      <point x="75" y="531" type="line" smooth="yes"/>
      <point x="75" y="589"/>
      <point x="105" y="635"/>
      <point x="180" y="653" type="curve" smooth="yes"/>
      <point x="290" y="680" type="line" smooth="yes"/>
      <point x="326" y="689"/>
      <point x="331" y="701"/>
      <point x="334" y="719" type="curve" smooth="yes"/>
      <point x="340" y="760" type="line"/>
      <point x="320" y="760" type="line"/>
      <point x="314" y="720" type="line" smooth="yes"/>
      <point x="312" y="707"/>
      <point x="305" y="701"/>
      <point x="288" y="697" type="curve" smooth="yes"/>
      <point x="238" y="684" type="line"/>
      <point x="244" y="692"/>
      <point x="247" y="701"/>
      <point x="247" y="712" type="curve" smooth="yes"/>
      <point x="247" y="741"/>
      <point x="226" y="763"/>
      <point x="195" y="763" type="curve" smooth="yes"/>
      <point x="163" y="763"/>
      <point x="143" y="741"/>
      <point x="143" y="712" type="curve" smooth="yes"/>
      <point x="143" y="691"/>
      <point x="154" y="674"/>
      <point x="173" y="667" type="curve"/>
      <point x="97" y="646"/>
      <point x="53" y="611"/>
      <point x="53" y="517" type="curve" smooth="yes"/>
      <point x="53" y="407"/>
      <point x="112" y="359"/>
    </contour>
    <contour>
      <point x="195" y="675" type="curve" smooth="yes"/>
      <point x="174" y="675"/>
      <point x="161" y="688"/>
      <point x="161" y="705" type="curve" smooth="yes"/>
      <point x="161" y="719" type="line" smooth="yes"/>
      <point x="161" y="734"/>
      <point x="174" y="747"/>
      <point x="195" y="747" type="curve" smooth="yes"/>
      <point x="216" y="747"/>
      <point x="229" y="734"/>
      <point x="229" y="717" type="curve" smooth="yes"/>
      <point x="229" y="703" type="line" smooth="yes"/>
      <point x="229" y="688"/>
      <point x="216" y="675"/>
    </contour>
  </outline>
</glyph>
<glyph name="loChula-thai.short" format="1">
  <advance width="613"/>
  <outline>
    <contour>
      <point x="95" y="0" type="line" name="hr00"/>
      <point x="115" y="0" type="line"/>
      <point x="309" y="232" type="line"/>
      <point x="503" y="0" type="line"/>
      <point x="523" y="0" type="line"/>
      <point x="523" y="333" type="line" smooth="yes"/>
      <point x="523" y="379"/>
      <point x="501" y="408"/>
      <point x="464" y="418" type="curve"/>
      <point x="464" y="420" type="line"/>
      <point x="509" y="427"/>
      <point x="534" y="455"/>
      <point x="534" y="503" type="curve" smooth="yes"/>
      <point x="534" y="562" type="line"/>
      <point x="513" y="562" type="line"/>
      <point x="513" y="507" type="line" smooth="yes"/>
      <point x="513" y="451"/>
      <point x="488" y="428"/>
      <point x="429" y="428" type="curve" smooth="yes"/>
      <point x="355" y="428" type="line"/>
      <point x="355" y="411" type="line"/>
      <point x="420" y="411" type="line" smooth="yes"/>
      <point x="476" y="411"/>
      <point x="502" y="389"/>
      <point x="502" y="329" type="curve" smooth="yes"/>
      <point x="502" y="249" type="line"/>
      <point x="504" y="24" type="line"/>
      <point x="503" y="24" type="line"/>
      <point x="318" y="247" type="line"/>
      <point x="300" y="247" type="line"/>
      <point x="115" y="24" type="line"/>
      <point x="114" y="24" type="line"/>
      <point x="116" y="249" type="line"/>
      <point x="116" y="536" type="line"/>
      <point x="95" y="536" type="line"/>
    </contour>
    <contour>
      <point x="523.0" y="0.0" type="move" name="bottomright"/>
    </contour>
    <contour>
      <point x="308.0" y="558.0" type="move" name="top"/>
    </contour>
    <contour>
      <point x="523.0" y="600.0" type="move" name="topright"/>
    </contour>
  </outline>
</glyph>
<glyph name="maiChattawa-thai.narrow" format="1">
  <advance width="0"/>
  <outline>
    <contour>
      <point x="-176" y="678" type="line" name="hr00"/>
      <point x="-156" y="678" type="line"/>
      <point x="-156" y="769" type="line"/>
      <point x="-65" y="769" type="line"/>
      <point x="-65" y="787" type="line"/>
      <point x="-156" y="787" type="line"/>
      <point x="-156" y="878" type="line"/>
      <point x="-176" y="878" type="line"/>
      <point x="-176" y="787" type="line"/>
      <point x="-267" y="787" type="line"/>
      <point x="-267" y="769" type="line"/>
      <point x="-176" y="769" type="line"/>
    </contour>
    <contour>
      <point x="0.0" y="600.0" type="move" name="_topright"/>
    </contour>
  </outline>
</glyph>
<glyph name="maiChattawa-thai.small" format="1">
  <advance width="0"/>
  <outline>
    <contour>
      <point x="-18" y="849" type="line" name="hr00"/>
      <point x="0" y="849" type="line"/>
      <point x="0" y="930" type="line"/>
      <point x="84" y="930" type="line"/>
      <point x="84" y="946" type="line"/>
      <point x="0" y="946" type="line"/>
      <point x="0" y="1027" type="line"/>
      <point x="-18" y="1027" type="line"/>
      <point x="-18" y="946" type="line"/>
      <point x="-102" y="946" type="line"/>
      <point x="-102" y="930" type="line"/>
      <point x="-18" y="930" type="line"/>
    </contour>
    <contour>
      <point x="0.0" y="800.0" type="move" name="_topright"/>
    </contour>
  </outline>
</glyph>
<glyph name="maiEk-thai.small" format="1">
  <advance width="0"/>
  <outline>
    <contour>
      <point x="-19" y="858" type="line" name="hr00"/>
      <point x="0" y="858" type="line"/>
      <point x="0" y="986" type="line"/>
      <point x="-19" y="986" type="line"/>
    </contour>
    <contour>
      <point x="0.0" y="800.0" type="move" name="_topright"/>
    </contour>
  </outline>
</glyph>
<glyph name="maiHanaKat-thai.narrow" format="1">
  <advance width="0"/>
  <outline>
    <contour>
      <point x="-316" y="679" type="curve" smooth="yes" name="hr00"/>
      <point x="-65" y="679" type="line"/>
      <point x="-65" y="698" type="line"/>
      <point x="-324" y="698" type="line"/>
      <point x="-324" y="787" type="line"/>
      <point x="-345" y="787" type="line"/>
      <point x="-345" y="708" type="line" smooth="yes"/>
      <point x="-345" y="688"/>
      <point x="-336" y="679"/>
    </contour>
    <contour>
      <point x="0.0" y="600.0" type="move" name="_topright"/>
    </contour>
    <contour>
      <point x="-65.0" y="800.0" type="move" name="topright"/>
    </contour>
  </outline>
</glyph>
<glyph name="maiHanaKat_maiTri-thai" format="1">
  <advance width="0"/>
  <outline>
    <contour>
      <point x="-107" y="858" type="line" name="hr00"/>
      <point x="-87" y="858" type="line"/>
      <point x="-87" y="919" type="line" smooth="yes"/>
      <point x="-87" y="955"/>
      <point x="-69" y="975"/>
      <point x="-38" y="975" type="curve" smooth="yes"/>
      <point x="-3" y="975"/>
      <point x="16" y="954"/>
      <point x="16" y="915" type="curve" smooth="yes"/>
      <point x="16" y="896" type="line"/>
      <point x="35" y="896" type="line"/>
      <point x="35" y="915" type="line" smooth="yes"/>
      <point x="35" y="954"/>
      <point x="53" y="975"/>
      <point x="86" y="975" type="curve" smooth="yes"/>
      <point x="119" y="975"/>
      <point x="138" y="955"/>
      <point x="138" y="919" type="curve" smooth="yes"/>
      <point x="138" y="858" type="line"/>
      <point x="262" y="858" type="line"/>
      <point x="262" y="875" type="line"/>
      <point x="158" y="875" type="line"/>
      <point x="158" y="921" type="line" smooth="yes"/>
      <point x="158" y="967"/>
      <point x="130" y="992"/>
      <point x="89" y="992" type="curve" smooth="yes"/>
      <point x="57" y="992"/>
      <point x="33" y="974"/>
      <point x="27" y="941" type="curve"/>
      <point x="24" y="941" type="line"/>
      <point x="18" y="974"/>
      <point x="-7" y="992"/>
      <point x="-41" y="992" type="curve" smooth="yes"/>
      <point x="-80" y="992"/>
      <point x="-107" y="967"/>
      <point x="-107" y="921" type="curve" smooth="yes"/>
    </contour>
    <contour>
      <point x="-78" y="679" type="curve" smooth="yes"/>
      <point x="173" y="679" type="line"/>
      <point x="173" y="698" type="line"/>
      <point x="-87" y="698" type="line"/>
      <point x="-87" y="787" type="line"/>
      <point x="-107" y="787" type="line"/>
      <point x="-107" y="708" type="line" smooth="yes"/>
      <point x="-107" y="688"/>
      <point x="-98" y="679"/>
    </contour>
    <contour>
      <point x="0.0" y="600.0" type="move" name="_topright"/>
    </contour>
  </outline>
</glyph>
<glyph name="maiHanaKat_maitaikhu-thai" format="1">
  <advance width="0"/>
  <outline>
    <contour>
      <point x="-223" y="853" type="curve" smooth="yes" name="hr00"/>
      <point x="-179" y="853"/>
      <point x="-155" y="883"/>
      <point x="-148" y="917" type="curve"/>
      <point x="-145" y="917" type="line"/>
      <point x="-137" y="883"/>
      <point x="-112" y="853"/>
      <point x="-67" y="853" type="curve" smooth="yes"/>
      <point x="-17" y="853"/>
      <point x="15" y="886"/>
      <point x="15" y="940" type="curve" smooth="yes"/>
      <point x="15" y="959" type="line"/>
      <point x="-3" y="959" type="line"/>
      <point x="-3" y="944" type="line" smooth="yes"/>
      <point x="-3" y="894"/>
      <point x="-33" y="870"/>
      <point x="-69" y="870" type="curve" smooth="yes"/>
      <point x="-113" y="870"/>
      <point x="-131" y="904"/>
      <point x="-138" y="936" type="curve"/>
      <point x="-154" y="936" type="line"/>
      <point x="-161" y="904"/>
      <point x="-178" y="870"/>
      <point x="-220" y="870" type="curve" smooth="yes"/>
      <point x="-265" y="870"/>
      <point x="-291" y="896"/>
      <point x="-291" y="946" type="curve" smooth="yes"/>
      <point x="-291" y="995"/>
      <point x="-262" y="1025"/>
      <point x="-207" y="1025" type="curve" smooth="yes"/>
      <point x="17" y="1025" type="line"/>
      <point x="17" y="1042" type="line"/>
      <point x="-202" y="1042" type="line" smooth="yes"/>
      <point x="-270" y="1042"/>
      <point x="-310" y="1001"/>
      <point x="-310" y="945" type="curve" smooth="yes"/>
      <point x="-310" y="890"/>
      <point x="-276" y="853"/>
    </contour>
    <contour>
      <point x="-251" y="679" type="curve" smooth="yes"/>
      <point x="0" y="679" type="line"/>
      <point x="0" y="698" type="line"/>
      <point x="-260" y="698" type="line"/>
      <point x="-260" y="787" type="line"/>
      <point x="-280" y="787" type="line"/>
      <point x="-280" y="708" type="line" smooth="yes"/>
      <point x="-280" y="688"/>
      <point x="-271" y="679"/>
    </contour>
    <contour>
      <point x="0.0" y="600.0" type="move" name="_topright"/>
    </contour>
  </outline>
</glyph>
<glyph name="maitaikhu-thai.narrow" format="1">
  <advance width="0"/>
  <outline>
    <contour>
      <point x="-303" y="673" type="curve" smooth="yes" name="hr00"/>
      <point x="-259" y="673"/>
      <point x="-235" y="705"/>
      <point x="-228" y="741" type="curve"/>
      <point x="-225" y="741" type="line"/>
      <point x="-217" y="705"/>
      <point x="-192" y="673"/>
      <point x="-147" y="673" type="curve" smooth="yes"/>
      <point x="-97" y="673"/>
      <point x="-65" y="708"/>
      <point x="-65" y="765" type="curve" smooth="yes"/>
      <point x="-65" y="785" type="line"/>
      <point x="-84" y="785" type="line"/>
      <point x="-84" y="769" type="line" smooth="yes"/>
      <point x="-84" y="716"/>
      <point x="-114" y="691"/>
      <point x="-150" y="691" type="curve" smooth="yes"/>
      <point x="-193" y="691"/>
      <point x="-211" y="728"/>
      <point x="-218" y="761" type="curve"/>
      <point x="-235" y="761" type="line"/>
      <point x="-241" y="727"/>
      <point x="-259" y="691"/>
      <point x="-300" y="691" type="curve" smooth="yes"/>
      <point x="-344" y="691"/>
      <point x="-370" y="719"/>
      <point x="-370" y="772" type="curve" smooth="yes"/>
      <point x="-370" y="823"/>
      <point x="-341" y="855"/>
      <point x="-287" y="855" type="curve" smooth="yes"/>
      <point x="-63" y="855" type="line"/>
      <point x="-63" y="873" type="line"/>
      <point x="-282" y="873" type="line" smooth="yes"/>
      <point x="-351" y="873"/>
      <point x="-390" y="830"/>
      <point x="-390" y="770" type="curve" smooth="yes"/>
      <point x="-390" y="712"/>
      <point x="-356" y="673"/>
    </contour>
    <contour>
      <point x="0.0" y="600.0" type="move" name="_topright"/>
    </contour>
    <contour>
      <point x="-65.0" y="885.0" type="move" name="topright"/>
    </contour>
  </outline>
</glyph>
<glyph name="maitaikhu-thai.small" format="1">
  <advance width="0"/>
  <outline>
    <contour>
      <point x="-238" y="853" type="curve" smooth="yes" name="hr00"/>
      <point x="-194" y="853"/>
      <point x="-170" y="883"/>
      <point x="-163" y="917" type="curve"/>
      <point x="-160" y="917" type="line"/>
      <point x="-152" y="883"/>
      <point x="-127" y="853"/>
      <point x="-82" y="853" type="curve" smooth="yes"/>
      <point x="-32" y="853"/>
      <point x="0" y="886"/>
      <point x="0" y="940" type="curve" smooth="yes"/>
      <point x="0" y="959" type="line"/>
      <point x="-18" y="959" type="line"/>
      <point x="-18" y="944" type="line" smooth="yes"/>
      <point x="-18" y="894"/>
      <point x="-48" y="870"/>
      <point x="-84" y="870" type="curve" smooth="yes"/>
      <point x="-128" y="870"/>
      <point x="-146" y="904"/>
      <point x="-153" y="936" type="curve"/>
      <point x="-169" y="936" type="line"/>
      <point x="-176" y="904"/>
      <point x="-193" y="870"/>
      <point x="-235" y="870" type="curve" smooth="yes"/>
      <point x="-280" y="870"/>
      <point x="-306" y="896"/>
      <point x="-306" y="946" type="curve" smooth="yes"/>
      <point x="-306" y="995"/>
      <point x="-277" y="1025"/>
      <point x="-222" y="1025" type="curve" smooth="yes"/>
      <point x="2" y="1025" type="line"/>
      <point x="2" y="1042" type="line"/>
      <point x="-217" y="1042" type="line" smooth="yes"/>
      <point x="-285" y="1042"/>
      <point x="-325" y="1001"/>
      <point x="-325" y="945" type="curve" smooth="yes"/>
      <point x="-325" y="890"/>
      <point x="-291" y="853"/>
    </contour>
    <contour>
      <point x="0.0" y="800.0" type="move" name="_topright"/>
    </contour>
  </outline>
</glyph>
<glyph name="moMa-thai_macronbelowcomb" format="1">
  <advance width="565"/>
  <outline>
    <contour>
      <point x="291" y="-12" type="curve" smooth="yes" name="hr00"/>
      <point x="414" y="-12"/>
      <point x="480" y="59"/>
      <point x="480" y="192" type="curve" smooth="yes"/>
      <point x="480" y="536" type="line"/>
      <point x="459" y="536" type="line"/>
      <point x="459" y="196" type="line" smooth="yes"/>
      <point x="459" y="65"/>
      <point x="397" y="7"/>
      <point x="289" y="7" type="curve" smooth="yes"/>
      <point x="198" y="7"/>
      <point x="116" y="55"/>
      <point x="116" y="153" type="curve" smooth="yes"/>
      <point x="116" y="536" type="line"/>
      <point x="95" y="536" type="line"/>
      <point x="95" y="0" type="line"/>
      <point x="116" y="0" type="line"/>
      <point x="116" y="81" type="line"/>
      <point x="119" y="81" type="line"/>
      <point x="139" y="33"/>
      <point x="192" y="-12"/>
    </contour>
    <contour>
      <point x="95" y="-139" type="line"/>
      <point x="480" y="-139" type="line"/>
      <point x="480" y="-120" type="line"/>
      <point x="95" y="-120" type="line"/>
    </contour>
    <contour>
      <point x="480.0" y="-97.0" type="move" name="bottomright"/>
    </contour>
    <contour>
      <point x="288.0" y="558.0" type="move" name="top"/>
    </contour>
    <contour>
      <point x="480.0" y="600.0" type="move" name="topright"/>
    </contour>
  </outline>
</glyph>
<glyph name="nikhahit-thai.small" format="1">
  <advance width="0"/>
  <outline>
    <contour>
      <point x="-10" y="873" type="curve" smooth="yes" name="hr00"/>
      <point x="-47" y="873"/>
      <point x="-70" y="897"/>
      <point x="-70" y="926" type="curve" smooth="yes"/>
      <point x="-70" y="946" type="line" smooth="yes"/>
      <point x="-70" y="975"/>
      <point x="-47" y="999"/>
      <point x="-10" y="999" type="curve" smooth="yes"/>
      <point x="27" y="999"/>
      <point x="50" y="975"/>
      <point x="50" y="946" type="curve" smooth="yes"/>
      <point x="50" y="926" type="line" smooth="yes"/>
      <point x="50" y="897"/>
      <point x="27" y="873"/>
    </contour>
    <contour>
      <point x="-10" y="855" type="curve" smooth="yes"/>
      <point x="39" y="855"/>
      <point x="70" y="890"/>
      <point x="70" y="936" type="curve" smooth="yes"/>
      <point x="70" y="982"/>
      <point x="39" y="1017"/>
      <point x="-10" y="1017" type="curve" smooth="yes"/>
      <point x="-59" y="1017"/>
      <point x="-90" y="982"/>
      <point x="-90" y="936" type="curve" smooth="yes"/>
      <point x="-90" y="890"/>
      <point x="-59" y="855"/>
    </contour>
    <contour>
      <point x="0.0" y="800.0" type="move" name="_topright"/>
    </contour>
    <contour>
      <point x="0.0" y="1048.0" type="move" name="topright"/>
    </contour>
  </outline>
</glyph>
<glyph name="one-thai.sups" format="1">
  <advance width="396"/>
  <outline>
    <contour>
      <point x="130" y="350" type="line" name="hr00"/>
      <point x="235" y="350"/>
      <point x="342" y="400"/>
      <point x="342" y="542" type="curve" smooth="yes"/>
      <point x="342" y="657"/>
      <point x="284" y="710"/>
      <point x="188" y="710" type="curve" smooth="yes"/>
      <point x="104" y="710"/>
      <point x="50" y="656"/>
      <point x="50" y="585" type="curve" smooth="yes"/>
      <point x="50" y="518"/>
      <point x="94" y="478"/>
      <point x="165" y="478" type="curve" smooth="yes"/>
      <point x="179" y="478"/>
      <point x="191" y="479"/>
      <point x="202" y="481" type="curve"/>
      <point x="200" y="498" type="line"/>
      <point x="190" y="496"/>
      <point x="178" y="495"/>
      <point x="166" y="495" type="curve" smooth="yes"/>
      <point x="106" y="495"/>
      <point x="72" y="535"/>
      <point x="72" y="579" type="curve" smooth="yes"/>
      <point x="72" y="591" type="line" smooth="yes"/>
      <point x="72" y="640"/>
      <point x="112" y="692"/>
      <point x="189" y="692" type="curve" smooth="yes"/>
      <point x="272" y="692"/>
      <point x="320" y="642"/>
      <point x="320" y="552" type="curve" smooth="yes"/>
      <point x="320" y="537" type="line" smooth="yes"/>
      <point x="320" y="410"/>
      <point x="224" y="367"/>
      <point x="129" y="368" type="curve"/>
    </contour>
  </outline>
</glyph>
<glyph name="saraI-thai.narrow" format="1">
  <advance width="0"/>
  <outline>
    <contour>
      <point x="-429" y="679" type="line" name="hr00"/>
      <point x="-65" y="679" type="line"/>
      <point x="-65" y="698" type="line"/>
      <point x="-429" y="698" type="line"/>
    </contour>
    <contour>
      <point x="0.0" y="600.0" type="move" name="_topright"/>
    </contour>
    <contour>
      <point x="-65.0" y="760.0" type="move" name="topright"/>
    </contour>
  </outline>
</glyph>
<glyph name="saraUe-thai.narrow" format="1">
  <advance width="0"/>
  <outline>
    <contour>
      <point x="-429" y="679" type="line" name="hr00"/>
      <point x="-115" y="679" type="line" smooth="yes"/>
      <point x="-74" y="679"/>
      <point x="-46" y="710"/>
      <point x="-46" y="750" type="curve" smooth="yes"/>
      <point x="-46" y="789"/>
      <point x="-74" y="819"/>
      <point x="-115" y="819" type="curve" smooth="yes"/>
      <point x="-158" y="819"/>
      <point x="-184" y="789"/>
      <point x="-184" y="750" type="curve" smooth="yes"/>
      <point x="-184" y="729"/>
      <point x="-177" y="711"/>
      <point x="-164" y="698" type="curve"/>
      <point x="-429" y="698" type="line"/>
    </contour>
    <contour>
      <point x="-115" y="698" type="curve" smooth="yes"/>
      <point x="-145" y="698"/>
      <point x="-163" y="717"/>
      <point x="-163" y="739" type="curve" smooth="yes"/>
      <point x="-163" y="759" type="line" smooth="yes"/>
      <point x="-163" y="781"/>
      <point x="-145" y="800"/>
      <point x="-115" y="800" type="curve" smooth="yes"/>
      <point x="-85" y="800"/>
      <point x="-67" y="781"/>
      <point x="-67" y="759" type="curve" smooth="yes"/>
      <point x="-67" y="739" type="line" smooth="yes"/>
      <point x="-67" y="717"/>
      <point x="-85" y="698"/>
    </contour>
    <contour>
      <point x="0.0" y="600.0" type="move" name="_topright"/>
    </contour>
    <contour>
      <point x="-104.0" y="840.0" type="move" name="topright"/>
    </contour>
  </outline>
</glyph>
<glyph name="seven-thai.sups" format="1">
  <advance width="596"/>
  <outline>
    <contour>
      <point x="191" y="351" type="curve" smooth="yes" name="hr00"/>
      <point x="207" y="351"/>
      <point x="225" y="353"/>
      <point x="242" y="357" type="curve"/>
      <point x="239" y="374" type="line"/>
      <point x="222" y="370"/>
      <point x="208" y="369"/>
      <point x="192" y="369" type="curve" smooth="yes"/>
      <point x="116" y="369"/>
      <point x="79" y="443"/>
      <point x="79" y="521" type="curve" smooth="yes"/>
      <point x="79" y="561" type="line" smooth="yes"/>
      <point x="79" y="645"/>
      <point x="105" y="692"/>
      <point x="156" y="692" type="curve" smooth="yes"/>
      <point x="200" y="692"/>
      <point x="213" y="655"/>
      <point x="214" y="612" type="curve"/>
      <point x="230" y="612" type="line"/>
      <point x="232" y="656"/>
      <point x="246" y="692"/>
      <point x="296" y="692" type="curve" smooth="yes"/>
      <point x="361" y="692"/>
      <point x="361" y="629"/>
      <point x="361" y="604" type="curve" smooth="yes"/>
      <point x="361" y="359" type="line"/>
      <point x="411" y="359" type="line" smooth="yes"/>
      <point x="490" y="359"/>
      <point x="534" y="407"/>
      <point x="534" y="488" type="curve" smooth="yes"/>
      <point x="534" y="760" type="line"/>
      <point x="514" y="760" type="line"/>
      <point x="514" y="491" type="line" smooth="yes"/>
      <point x="514" y="415"/>
      <point x="476" y="376"/>
      <point x="411" y="376" type="curve" smooth="yes"/>
      <point x="381" y="376" type="line"/>
      <point x="381" y="608" type="line" smooth="yes"/>
      <point x="381" y="672"/>
      <point x="357" y="710"/>
      <point x="298" y="710" type="curve" smooth="yes"/>
      <point x="245" y="710"/>
      <point x="228" y="675"/>
      <point x="224" y="646" type="curve"/>
      <point x="221" y="646" type="line"/>
      <point x="217" y="675"/>
      <point x="200" y="710"/>
      <point x="155" y="710" type="curve" smooth="yes"/>
      <point x="95" y="710"/>
      <point x="57" y="658"/>
      <point x="57" y="541" type="curve" smooth="yes"/>
      <point x="57" y="429"/>
      <point x="104" y="351"/>
    </contour>
  </outline>
</glyph>
<glyph name="six-thai.sups" format="1">
  <advance width="400"/>
  <outline>
    <contour>
      <point x="188" y="350" type="curve" smooth="yes" name="hr00"/>
      <point x="286" y="350"/>
      <point x="347" y="414"/>
      <point x="347" y="534" type="curve" smooth="yes"/>
      <point x="347" y="648"/>
      <point x="292" y="710"/>
      <point x="203" y="710" type="curve" smooth="yes"/>
      <point x="140" y="710"/>
      <point x="88" y="675"/>
      <point x="75" y="619" type="curve"/>
      <point x="73" y="619" type="line"/>
      <point x="50" y="760" type="line"/>
      <point x="29" y="760" type="line"/>
      <point x="60" y="590" type="line"/>
      <point x="78" y="589" type="line"/>
      <point x="89" y="657"/>
      <point x="133" y="692"/>
      <point x="201" y="692" type="curve" smooth="yes"/>
      <point x="280" y="692"/>
      <point x="325" y="638"/>
      <point x="325" y="552" type="curve" smooth="yes"/>
      <point x="325" y="515" type="line" smooth="yes"/>
      <point x="325" y="424"/>
      <point x="274" y="368"/>
      <point x="188" y="368" type="curve" smooth="yes"/>
      <point x="127" y="368"/>
      <point x="92" y="395"/>
      <point x="69" y="434" type="curve"/>
      <point x="54" y="424" type="line"/>
      <point x="79" y="380"/>
      <point x="121" y="350"/>
    </contour>
  </outline>
</glyph>
<glyph name="thanthakhat-thai.narrow" format="1">
  <advance width="0"/>
  <outline>
    <contour>
      <point x="-295" y="680" type="line" name="hr00"/>
      <point x="-274" y="680" type="line"/>
      <point x="-274" y="770" type="line"/>
      <point x="-65" y="770" type="line"/>
      <point x="-65" y="789" type="line"/>
      <point x="-266" y="789" type="line" smooth="yes"/>
      <point x="-285" y="789"/>
      <point x="-295" y="780"/>
      <point x="-295" y="760" type="curve" smooth="yes"/>
    </contour>
    <contour>
      <point x="0.0" y="600.0" type="move" name="_topright"/>
    </contour>
  </outline>
</glyph>
<glyph name="two-thai.sups" format="1">
  <advance width="522"/>
  <outline>
    <contour>
      <point x="264" y="351" type="curve" smooth="yes" name="hr00"/>
      <point x="445" y="351"/>
      <point x="462" y="420"/>
      <point x="462" y="494" type="curve" smooth="yes"/>
      <point x="462" y="616" type="line" smooth="yes"/>
      <point x="462" y="678"/>
      <point x="438" y="710"/>
      <point x="391" y="710" type="curve" smooth="yes"/>
      <point x="344" y="710"/>
      <point x="327" y="677"/>
      <point x="322" y="646" type="curve"/>
      <point x="320" y="646" type="line"/>
      <point x="314" y="680"/>
      <point x="296" y="710"/>
      <point x="252" y="710" type="curve" smooth="yes"/>
      <point x="202" y="710"/>
      <point x="178" y="670"/>
      <point x="178" y="607" type="curve" smooth="yes"/>
      <point x="178" y="538"/>
      <point x="207" y="501"/>
      <point x="266" y="501" type="curve" smooth="yes"/>
      <point x="276" y="501"/>
      <point x="289" y="502"/>
      <point x="297" y="504" type="curve"/>
      <point x="294" y="522" type="line"/>
      <point x="286" y="520"/>
      <point x="278" y="519"/>
      <point x="269" y="519" type="curve" smooth="yes"/>
      <point x="217" y="519"/>
      <point x="200" y="555"/>
      <point x="200" y="591" type="curve" smooth="yes"/>
      <point x="200" y="618" type="line" smooth="yes"/>
      <point x="200" y="653"/>
      <point x="210" y="692"/>
      <point x="256" y="692" type="curve" smooth="yes"/>
      <point x="300" y="692"/>
      <point x="311" y="655"/>
      <point x="313" y="612" type="curve"/>
      <point x="329" y="612" type="line"/>
      <point x="331" y="659"/>
      <point x="345" y="692"/>
      <point x="388" y="692" type="curve" smooth="yes"/>
      <point x="436" y="692"/>
      <point x="442" y="650"/>
      <point x="442" y="618" type="curve" smooth="yes"/>
      <point x="442" y="495" type="line" smooth="yes"/>
      <point x="442" y="466"/>
      <point x="439" y="440"/>
      <point x="426" y="420" type="curve" smooth="yes"/>
      <point x="406" y="389"/>
      <point x="361" y="369"/>
      <point x="283" y="369" type="curve" smooth="yes"/>
      <point x="241" y="369" type="line" smooth="yes"/>
      <point x="163" y="369"/>
      <point x="118" y="389"/>
      <point x="98" y="420" type="curve" smooth="yes"/>
      <point x="85" y="440"/>
      <point x="82" y="466"/>
      <point x="82" y="495" type="curve" smooth="yes"/>
      <point x="82" y="760" type="line"/>
      <point x="62" y="760" type="line"/>
      <point x="62" y="494" type="line" smooth="yes"/>
      <point x="62" y="433"/>
      <point x="67" y="351"/>
    </contour>
  </outline>
</glyph>
<glyph name="yoYing-thai_macronbelowcomb" format="1">
  <advance width="897"/>
  <outline>
    <contour>
      <point x="638" y="-12" type="curve" smooth="yes" name="hr00"/>
      <point x="752" y="-12"/>
      <point x="812" y="59"/>
      <point x="812" y="182" type="curve" smooth="yes"/>
      <point x="812" y="536" type="line"/>
      <point x="791" y="536" type="line"/>
      <point x="791" y="186" type="line" smooth="yes"/>
      <point x="791" y="65"/>
      <point x="735" y="7"/>
      <point x="638" y="7" type="curve" smooth="yes"/>
      <point x="541" y="7"/>
      <point x="485" y="65"/>
      <point x="485" y="186" type="curve" smooth="yes"/>
      <point x="485" y="341" type="line" smooth="yes"/>
      <point x="485" y="477"/>
      <point x="412" y="548"/>
      <point x="276" y="548" type="curve" smooth="yes"/>
      <point x="158" y="548"/>
      <point x="73" y="476"/>
      <point x="60" y="377" type="curve"/>
      <point x="141" y="347" type="line"/>
      <point x="141" y="29" type="line" smooth="yes"/>
      <point x="141" y="9"/>
      <point x="150" y="0"/>
      <point x="170" y="0" type="curve" smooth="yes"/>
      <point x="247" y="0" type="line"/>
      <point x="247" y="19" type="line"/>
      <point x="162" y="19" type="line"/>
      <point x="162" y="345" type="line" smooth="yes"/>
      <point x="162" y="355"/>
      <point x="159" y="360"/>
      <point x="150" y="363" type="curve" smooth="yes"/>
      <point x="81" y="388" type="line"/>
      <point x="96" y="465"/>
      <point x="166" y="529"/>
      <point x="276" y="529" type="curve" smooth="yes"/>
      <point x="395" y="529"/>
      <point x="464" y="471"/>
      <point x="464" y="341" type="curve" smooth="yes"/>
      <point x="464" y="182" type="line" smooth="yes"/>
      <point x="464" y="59"/>
      <point x="524" y="-12"/>
    </contour>
    <contour>
      <point x="142" y="-139" type="line"/>
      <point x="812" y="-139" type="line"/>
      <point x="812" y="-120" type="line"/>
      <point x="142" y="-120" type="line"/>
    </contour>
    <contour>
      <point x="812.0" y="-97.0" type="move" name="bottomright"/>
    </contour>
    <contour>
      <point x="475.0" y="558.0" type="move" name="top"/>
    </contour>
    <contour>
      <point x="812.0" y="600.0" type="move" name="topright"/>
    </contour>
  </outline>
</glyph>
